<svg width="1280" height="640" viewBox="0 0 1280 640" fill="none" xmlns="http://www.w3.org/2000/svg">
<rect x="0.5" y="0.5" width="1279" height="639" fill="black"/>
<path d="M742.726 557.49H771.742C773.774 557.49 775.723 556.691 777.16 555.268C778.597 553.846 779.405 551.916 779.406 549.904C779.406 547.891 778.599 545.96 777.161 544.537C775.724 543.113 773.775 542.314 771.742 542.314H742.726C740.694 542.314 738.744 543.113 737.307 544.537C735.87 545.96 735.062 547.891 735.062 549.904V549.904C735.063 551.916 735.871 553.846 737.309 555.268C738.746 556.691 740.694 557.49 742.726 557.49V557.49ZM704.559 576.82H737.912C739.944 576.82 741.892 576.02 743.329 574.598C744.767 573.175 745.575 571.246 745.576 569.234V569.234C745.576 567.221 744.768 565.29 743.331 563.867C741.894 562.443 739.944 561.643 737.912 561.643H704.559C702.526 561.643 700.577 562.443 699.139 563.867C697.702 565.29 696.895 567.221 696.895 569.234V569.234C696.896 571.246 697.704 573.175 699.141 574.598C700.578 576.02 702.527 576.82 704.559 576.82V576.82ZM701.41 557.215H704.793V544.973H709.173V542H697.029V544.964H701.41V557.215ZM713.597 557.215H716.98V545.544H717.024L720.927 557.206H723.53L727.563 545.544H727.607V557.206H730.99V542H725.85L722.294 551.923H722.25L718.715 542H713.597V557.215ZM763.007 565.913C762.555 564.979 761.882 564.166 761.047 563.542C760.18 562.914 759.194 562.464 758.149 562.219C757.004 561.936 755.829 561.792 754.649 561.79H749.575V576.996H755.105C756.215 577.001 757.32 576.834 758.379 576.502C759.379 576.2 760.313 575.717 761.133 575.076C761.931 574.434 762.578 573.628 763.029 572.713C763.516 571.697 763.758 570.582 763.736 569.457C763.771 568.236 763.522 567.023 763.007 565.913V565.913ZM759.784 571.467C759.531 572.041 759.137 572.542 758.639 572.928C758.122 573.305 757.531 573.571 756.905 573.71C756.193 573.872 755.466 573.951 754.736 573.946H752.979V564.925H754.974C755.659 564.922 756.341 565.013 757 565.196C757.606 565.358 758.177 565.63 758.683 565.999C759.146 566.361 759.523 566.82 759.784 567.344C760.082 567.948 760.231 568.613 760.218 569.285C760.237 570.035 760.089 570.78 759.784 571.467V571.467ZM779.141 571.412C778.988 570.996 778.756 570.614 778.456 570.286C778.158 569.96 777.803 569.691 777.407 569.491C776.975 569.276 776.51 569.13 776.032 569.062V569.019C776.776 568.807 777.442 568.387 777.949 567.808C778.449 567.204 778.708 566.44 778.677 565.66C778.71 564.96 778.537 564.266 778.179 563.662C777.852 563.17 777.404 562.768 776.877 562.494C776.311 562.204 775.697 562.015 775.064 561.936C774.401 561.842 773.731 561.794 773.061 561.794H767.336V577H773.625C774.313 577 774.999 576.928 775.672 576.785C776.327 576.655 776.954 576.416 777.528 576.076C778.071 575.756 778.531 575.315 778.873 574.788C779.238 574.181 779.419 573.483 779.393 572.777C779.394 572.312 779.313 571.85 779.154 571.412H779.141ZM770.719 564.646H773.017C773.287 564.647 773.555 564.673 773.82 564.723C774.076 564.769 774.325 564.852 774.557 564.968C774.771 565.084 774.953 565.251 775.086 565.454C775.233 565.688 775.305 565.96 775.294 566.235C775.301 566.505 775.236 566.771 775.108 567.009C774.991 567.217 774.824 567.394 774.622 567.524C774.412 567.656 774.18 567.75 773.937 567.803C773.685 567.862 773.428 567.891 773.169 567.889H770.719V564.646ZM775.802 573.237C775.671 573.461 775.49 573.652 775.273 573.796C775.052 573.942 774.805 574.045 774.544 574.096C774.285 574.154 774.02 574.183 773.755 574.182H770.719V570.746H773.278C773.568 570.748 773.858 570.77 774.145 570.81C774.45 570.852 774.749 570.931 775.034 571.046C775.3 571.157 775.534 571.331 775.715 571.553C775.904 571.8 776 572.103 775.988 572.412C776.002 572.699 775.938 572.984 775.802 573.237V573.237Z" fill="url(#paint0_linear)"/>
<path d="M499.545 555.64H503.449V557.496C504.281 556.707 505.188 556.12 506.169 555.736C507.15 555.352 508.27 555.16 509.529 555.16C511.086 555.16 512.473 555.501 513.689 556.184C514.926 556.845 515.886 557.795 516.569 559.032C517.273 560.248 517.625 561.667 517.625 563.288C517.625 564.888 517.273 566.307 516.569 567.544C515.886 568.781 514.926 569.752 513.689 570.456C512.473 571.139 511.086 571.48 509.529 571.48C508.356 571.48 507.246 571.32 506.201 571C505.177 570.659 504.302 570.157 503.577 569.496V578.008H499.545V555.64ZM508.537 568.312C509.988 568.312 511.182 567.843 512.121 566.904C513.06 565.965 513.529 564.76 513.529 563.288C513.529 561.816 513.06 560.621 512.121 559.704C511.182 558.787 509.988 558.328 508.537 558.328C507.385 558.328 506.361 558.637 505.465 559.256C504.569 559.875 503.94 560.707 503.577 561.752V564.856C503.918 565.901 504.537 566.744 505.433 567.384C506.35 568.003 507.385 568.312 508.537 568.312ZM528.366 571.48C526.574 571.48 524.995 571.16 523.63 570.52C522.286 569.859 521.24 568.92 520.494 567.704C519.747 566.467 519.374 565.005 519.374 563.32C519.374 561.677 519.736 560.248 520.462 559.032C521.208 557.795 522.264 556.845 523.63 556.184C524.995 555.501 526.574 555.16 528.366 555.16C530.158 555.16 531.726 555.501 533.07 556.184C534.435 556.845 535.491 557.795 536.238 559.032C536.984 560.248 537.358 561.677 537.358 563.32C537.358 565.005 536.984 566.467 536.238 567.704C535.491 568.92 534.435 569.859 533.07 570.52C531.726 571.16 530.158 571.48 528.366 571.48ZM528.366 568.312C529.838 568.312 531.011 567.853 531.886 566.936C532.76 565.997 533.198 564.792 533.198 563.32C533.198 561.763 532.76 560.547 531.886 559.672C531.032 558.776 529.859 558.328 528.366 558.328C526.872 558.328 525.688 558.776 524.814 559.672C523.96 560.547 523.534 561.763 523.534 563.32C523.534 564.792 523.971 565.997 524.846 566.936C525.72 567.853 526.894 568.312 528.366 568.312ZM537.811 555.64H541.843L544.979 566.04L548.051 555.64H551.571L554.643 566.04L557.779 555.64H561.811L556.787 571H553.075L549.811 560.568L546.547 571H542.835L537.811 555.64ZM572.685 571.48C569.826 571.48 567.565 570.765 565.901 569.336C564.237 567.907 563.405 565.912 563.405 563.352C563.405 560.835 564.141 558.84 565.613 557.368C567.085 555.896 569.186 555.16 571.917 555.16C573.709 555.16 575.234 555.501 576.493 556.184C577.773 556.867 578.733 557.805 579.373 559C580.013 560.173 580.333 561.517 580.333 563.032V564.888H567.245C567.522 567.171 569.506 568.312 573.197 568.312C574.178 568.312 575.181 568.227 576.205 568.056C577.229 567.885 578.125 567.651 578.893 567.352V570.456C578.168 570.755 577.229 571 576.077 571.192C574.946 571.384 573.816 571.48 572.685 571.48ZM576.525 562.136C576.482 560.92 576.045 559.981 575.213 559.32C574.402 558.659 573.282 558.328 571.853 558.328C570.445 558.328 569.336 558.669 568.525 559.352C567.714 560.035 567.288 560.963 567.245 562.136H576.525ZM583.545 555.64H587.449V558.104C588.068 557.272 588.942 556.653 590.073 556.248C591.225 555.843 592.537 555.64 594.009 555.64V558.712C592.452 558.712 591.097 558.957 589.945 559.448C588.814 559.917 588.025 560.664 587.577 561.688V571H583.545V555.64ZM604.248 571.48C601.389 571.48 599.128 570.765 597.464 569.336C595.8 567.907 594.968 565.912 594.968 563.352C594.968 560.835 595.704 558.84 597.176 557.368C598.648 555.896 600.749 555.16 603.48 555.16C605.272 555.16 606.797 555.501 608.056 556.184C609.336 556.867 610.296 557.805 610.936 559C611.576 560.173 611.896 561.517 611.896 563.032V564.888H598.808C599.085 567.171 601.069 568.312 604.76 568.312C605.741 568.312 606.744 568.227 607.768 568.056C608.792 567.885 609.688 567.651 610.456 567.352V570.456C609.73 570.755 608.792 571 607.64 571.192C606.509 571.384 605.378 571.48 604.248 571.48ZM608.088 562.136C608.045 560.92 607.608 559.981 606.776 559.32C605.965 558.659 604.845 558.328 603.416 558.328C602.008 558.328 600.898 558.669 600.088 559.352C599.277 560.035 598.85 560.963 598.808 562.136H608.088ZM622.564 571.48C621.006 571.48 619.609 571.149 618.372 570.488C617.156 569.805 616.196 568.856 615.492 567.64C614.809 566.403 614.468 564.973 614.468 563.352C614.468 561.752 614.809 560.333 615.492 559.096C616.196 557.859 617.156 556.899 618.372 556.216C619.609 555.512 621.006 555.16 622.564 555.16C625.081 555.16 627.065 555.821 628.516 557.144V547.352H632.548V571H628.644V569.208C627.769 570.019 626.862 570.605 625.924 570.968C624.985 571.309 623.865 571.48 622.564 571.48ZM623.556 568.312C624.708 568.312 625.732 568.003 626.628 567.384C627.524 566.765 628.153 565.933 628.516 564.888V561.784C628.174 560.739 627.545 559.907 626.628 559.288C625.732 558.648 624.708 558.328 623.556 558.328C622.105 558.328 620.91 558.797 619.972 559.736C619.033 560.675 618.564 561.88 618.564 563.352C618.564 564.824 619.033 566.019 619.972 566.936C620.91 567.853 622.105 568.312 623.556 568.312ZM657.904 571.48C656.603 571.48 655.483 571.309 654.544 570.968C653.605 570.605 652.699 570.019 651.824 569.208V571H647.92V547.352H651.952V557.144C652.677 556.483 653.552 555.992 654.576 555.672C655.621 555.331 656.731 555.16 657.904 555.16C659.461 555.16 660.848 555.512 662.064 556.216C663.301 556.899 664.261 557.859 664.944 559.096C665.648 560.333 666 561.752 666 563.352C666 564.973 665.648 566.403 664.944 567.64C664.261 568.856 663.301 569.805 662.064 570.488C660.848 571.149 659.461 571.48 657.904 571.48ZM656.912 568.312C658.363 568.312 659.557 567.853 660.496 566.936C661.435 566.019 661.904 564.824 661.904 563.352C661.904 561.88 661.435 560.675 660.496 559.736C659.557 558.797 658.363 558.328 656.912 558.328C655.76 558.328 654.725 558.648 653.808 559.288C652.912 559.907 652.293 560.739 651.952 561.784V564.888C652.315 565.933 652.944 566.765 653.84 567.384C654.736 568.003 655.76 568.312 656.912 568.312ZM670.788 577.336C670.233 577.336 669.646 577.293 669.028 577.208C668.43 577.144 667.961 577.048 667.62 576.92V573.848C668.153 574.061 668.814 574.168 669.604 574.168C670.414 574.168 671.022 573.987 671.428 573.624C671.833 573.261 672.185 572.685 672.484 571.896L673.092 570.296L666.468 555.64H670.532L675.268 566.84L679.716 555.64H683.748L677.028 572.376C676.345 574.061 675.513 575.309 674.532 576.12C673.572 576.931 672.324 577.336 670.788 577.336Z" fill="url(#paint1_linear)"/>
<path d="M238.282 273.716C231.374 273.716 225.831 271.788 221.653 267.932C217.476 263.915 215.387 258.774 215.387 252.508C215.387 246.563 216.994 241.02 220.207 235.879C223.421 230.577 227.678 226.4 232.98 223.347C238.282 220.294 243.906 218.768 249.85 218.768C256.598 218.768 262.061 220.857 266.238 225.034C270.576 229.051 272.745 234.192 272.745 240.458C272.745 242.386 272.504 244.314 272.022 246.242C270.416 254.115 266.319 260.702 259.731 266.004C253.305 271.145 246.155 273.716 238.282 273.716ZM109.106 319.988H94.1642L101.876 284.32H116.577L118.505 275.403C122.361 257.89 130.796 244.394 143.81 234.915C156.824 225.436 172.65 220.696 191.287 220.696C201.731 220.696 210.085 222.383 216.351 225.757L207.193 268.896C202.534 266.165 197.393 264.799 191.769 264.799C186.307 264.799 181.888 266.084 178.514 268.655C175.14 271.226 172.891 275.082 171.766 280.223L170.802 284.32H263.346L238.764 400H184.539L201.409 319.988H163.331L146.461 400H92.2362L109.106 319.988ZM280.969 284.32H333.266L331.097 293.96C336.721 289.783 342.987 286.569 349.895 284.32C356.965 281.91 364.034 280.705 371.103 280.705C384.278 280.705 394.159 284.159 400.746 291.068C407.494 297.977 410.868 306.733 410.868 317.337C410.868 320.711 410.467 324.406 409.663 328.423L394.48 400H340.255L353.751 336.376C354.073 333.805 354.233 332.118 354.233 331.315C354.233 325.531 351.1 322.639 344.834 322.639C336.801 322.639 330.053 326.254 324.59 333.484L310.612 400H256.387L280.969 284.32ZM465.984 403.615C450.078 403.615 437.707 399.598 428.87 391.565C420.033 383.532 415.615 372.446 415.615 358.307C415.615 353.648 416.258 348.265 417.543 342.16C421.56 323.362 429.995 308.42 442.848 297.334C455.862 286.248 472.33 280.705 492.253 280.705C499.001 280.705 505.187 281.749 510.81 283.838C516.433 285.766 520.932 288.337 524.306 291.55L539.248 221.901H593.473L555.636 400H503.339L505.267 390.36C500.126 394.377 494.02 397.59 486.951 400C479.882 402.41 472.893 403.615 465.984 403.615ZM489.843 361.681C494.02 361.681 498.037 360.717 501.893 358.789C505.91 356.861 509.203 354.21 511.774 350.836L515.389 333.484C514.264 330.11 512.176 327.459 509.123 325.531C506.07 323.603 502.455 322.639 498.278 322.639C491.851 322.639 486.469 324.326 482.131 327.7C477.793 331.074 474.901 335.974 473.455 342.401C472.973 344.811 472.732 347.06 472.732 349.149C472.732 353.487 474.017 356.7 476.588 358.789C479.319 360.717 483.738 361.681 489.843 361.681ZM624.846 403.615C609.583 403.615 597.372 399.438 588.214 391.083C579.217 382.728 574.718 371.482 574.718 357.343C574.718 352.202 575.281 347.141 576.405 342.16C580.422 323.523 588.937 308.661 601.951 297.575C615.126 286.328 631.514 280.705 651.115 280.705C657.863 280.705 664.049 281.749 669.672 283.838C675.296 285.766 679.794 288.337 683.168 291.55L684.855 284.32H739.08L714.498 400H662.201L664.129 390.36C658.988 394.377 652.883 397.59 645.813 400C638.744 402.41 631.755 403.615 624.846 403.615ZM648.705 361.681C652.883 361.681 656.899 360.717 660.755 358.789C664.772 356.861 668.066 354.21 670.636 350.836L674.251 333.484C673.127 330.11 671.038 327.459 667.985 325.531C664.933 323.603 661.318 322.639 657.14 322.639C650.714 322.639 645.331 324.326 640.993 327.7C636.655 331.074 633.763 335.974 632.317 342.401C631.835 344.811 631.594 346.98 631.594 348.908C631.594 353.246 632.96 356.459 635.691 358.548C638.423 360.637 642.761 361.681 648.705 361.681ZM881.498 273.716C874.589 273.716 869.046 271.788 864.869 267.932C860.692 263.915 858.603 258.774 858.603 252.508C858.603 246.563 860.21 241.02 863.423 235.879C866.636 230.577 870.894 226.4 876.196 223.347C881.498 220.294 887.121 218.768 893.066 218.768C899.814 218.768 905.277 220.857 909.454 225.034C913.792 229.051 915.961 234.192 915.961 240.458C915.961 242.386 915.72 244.314 915.238 246.242C913.631 254.115 909.534 260.702 902.947 266.004C896.52 271.145 889.371 273.716 881.498 273.716ZM752.322 319.988H737.38L745.092 284.32H759.793L761.721 275.403C765.577 257.89 774.012 244.394 787.026 234.915C800.04 225.436 815.866 220.696 834.503 220.696C844.946 220.696 853.301 222.383 859.567 225.757L850.409 268.896C845.75 266.165 840.608 264.799 834.985 264.799C829.522 264.799 825.104 266.084 821.73 268.655C818.356 271.226 816.107 275.082 814.982 280.223L814.018 284.32H906.562L881.98 400H827.755L844.625 319.988H806.547L789.677 400H735.452L752.322 319.988ZM937.44 221.901H991.665L953.828 400H899.603L937.44 221.901ZM995.261 284.32H1045.15L1042.98 293.96C1053.9 285.123 1066.36 280.705 1080.33 280.705C1088.53 280.705 1094.87 281.83 1099.37 284.079C1103.87 286.168 1107.49 289.381 1110.22 293.719C1115.84 289.702 1122.11 286.569 1129.02 284.32C1136.09 281.91 1143.07 280.705 1149.98 280.705C1162.68 280.705 1171.75 283.356 1177.22 288.658C1182.84 293.799 1185.65 301.27 1185.65 311.071C1185.65 316.373 1184.93 322.157 1183.48 328.423L1168.3 400H1116.48L1129.98 336.376C1130.46 333.966 1130.7 331.958 1130.7 330.351C1130.7 327.78 1130.06 325.852 1128.78 324.567C1127.49 323.282 1125.32 322.639 1122.27 322.639C1118.73 322.639 1115.52 323.442 1112.63 325.049L1096.72 400H1044.91L1058.89 333.725C1059.21 331.476 1059.37 330.03 1059.37 329.387C1059.37 324.888 1056.88 322.639 1051.9 322.639C1046.43 322.639 1041.45 325.692 1036.95 331.797L1022.49 400H970.679L995.261 284.32Z" fill="white"/>
<path d="M221.653 267.932L204.672 285.592L204.852 285.765L205.035 285.935L221.653 267.932ZM220.207 235.879L240.983 248.864L241.072 248.721L241.16 248.577L220.207 235.879ZM266.238 225.034L248.914 242.358L249.247 242.691L249.593 243.011L266.238 225.034ZM272.022 246.242L248.254 240.3L248.124 240.819L248.017 241.343L272.022 246.242ZM259.731 266.004L275.036 285.135L275.065 285.113L275.093 285.09L259.731 266.004ZM109.106 319.988L133.079 325.043L139.31 295.488H109.106V319.988ZM94.1642 319.988L70.2175 314.81L63.8007 344.488H94.1642V319.988ZM101.876 284.32V259.82H82.1073L77.9295 279.142L101.876 284.32ZM116.577 284.32V308.82H136.346L140.524 289.498L116.577 284.32ZM118.505 275.403L94.5783 270.135L94.5683 270.18L94.5585 270.225L118.505 275.403ZM143.81 234.915L129.385 215.112L129.385 215.112L143.81 234.915ZM216.351 225.757L240.317 230.845L244.129 212.888L227.967 204.185L216.351 225.757ZM207.193 268.896L194.803 290.032L224.106 307.209L231.159 273.984L207.193 268.896ZM178.514 268.655L193.362 288.143L193.362 288.143L178.514 268.655ZM171.766 280.223L195.615 285.834L195.659 285.647L195.7 285.459L171.766 280.223ZM170.802 284.32L146.953 278.709L139.868 308.82H170.802V284.32ZM263.346 284.32L287.311 289.413L293.6 259.82H263.346V284.32ZM238.764 400V424.5H258.605L262.729 405.093L238.764 400ZM184.539 400L160.566 394.945L154.335 424.5H184.539V400ZM201.409 319.988L225.382 325.043L231.614 295.488H201.409V319.988ZM163.331 319.988V295.488H143.458L139.358 314.933L163.331 319.988ZM146.461 400V424.5H166.334L170.434 405.055L146.461 400ZM92.2362 400L68.2632 394.945L62.0319 424.5H92.2362V400ZM238.282 249.216C237.094 249.216 236.763 249.05 236.992 249.13C237.107 249.17 237.314 249.255 237.571 249.408C237.829 249.562 238.069 249.743 238.271 249.929L205.035 285.935C214.669 294.828 226.611 298.216 238.282 298.216V249.216ZM238.634 250.272C238.744 250.377 238.928 250.576 239.132 250.874C239.337 251.174 239.515 251.506 239.652 251.842C239.942 252.555 239.887 252.886 239.887 252.508H190.887C190.887 264.837 195.274 276.556 204.672 285.592L238.634 250.272ZM239.887 252.508C239.887 251.251 240.152 250.193 240.983 248.864L199.431 222.894C193.835 231.847 190.887 241.876 190.887 252.508H239.887ZM241.16 248.577C242.26 246.761 243.535 245.541 245.205 244.579L220.756 202.115C211.821 207.259 204.581 214.393 199.255 223.181L241.16 248.577ZM245.205 244.579C246.902 243.602 248.325 243.268 249.85 243.268V194.268C239.486 194.268 229.663 196.986 220.756 202.115L245.205 244.579ZM249.85 243.268C250.687 243.268 250.715 243.393 250.258 243.219C250.04 243.135 249.779 243.008 249.512 242.834C249.245 242.661 249.044 242.488 248.914 242.358L283.562 207.71C274.126 198.273 262.092 194.268 249.85 194.268V243.268ZM249.593 243.011C249.362 242.798 248.893 242.251 248.545 241.426C248.211 240.633 248.245 240.195 248.245 240.458H297.245C297.245 227.826 292.557 216.013 282.884 207.057L249.593 243.011ZM248.245 240.458C248.245 240.398 248.249 240.347 248.254 240.311C248.258 240.275 248.261 240.27 248.254 240.3L295.791 252.184C296.744 248.373 297.245 244.45 297.245 240.458H248.245ZM248.017 241.343C247.614 243.315 246.763 244.991 244.369 246.918L275.093 285.09C285.874 276.413 293.217 264.914 296.027 251.141L248.017 241.343ZM244.426 246.873C242.131 248.709 240.325 249.216 238.282 249.216V298.216C251.985 298.216 264.478 293.582 275.036 285.135L244.426 246.873ZM109.106 295.488H94.1642V344.488H109.106V295.488ZM118.111 325.166L125.823 289.498L77.9295 279.142L70.2175 314.81L118.111 325.166ZM101.876 308.82H116.577V259.82H101.876V308.82ZM140.524 289.498L142.452 280.581L94.5585 270.225L92.6305 279.142L140.524 289.498ZM142.432 280.671C145.159 268.287 150.617 260.267 158.235 254.718L129.385 215.112C110.975 228.521 99.5635 247.494 94.5783 270.135L142.432 280.671ZM158.235 254.718C166.423 248.755 176.987 245.196 191.287 245.196V196.196C168.312 196.196 147.226 202.117 129.385 215.112L158.235 254.718ZM191.287 245.196C199.435 245.196 203.321 246.567 204.736 247.329L227.967 204.185C216.85 198.199 204.026 196.196 191.287 196.196V245.196ZM192.385 220.669L183.227 263.808L231.159 273.984L240.317 230.845L192.385 220.669ZM219.583 247.76C211.008 242.733 201.561 240.299 191.769 240.299V289.299C193.224 289.299 194.06 289.596 194.803 290.032L219.583 247.76ZM191.769 240.299C182.497 240.299 172.398 242.514 163.666 249.167L193.362 288.143C192.456 288.834 191.64 289.16 191.202 289.288C190.818 289.4 190.934 289.299 191.769 289.299V240.299ZM163.666 249.167C154.635 256.048 149.89 265.581 147.832 274.987L195.7 285.459C195.811 284.952 195.831 285.183 195.459 285.82C195.053 286.516 194.36 287.383 193.362 288.143L163.666 249.167ZM147.917 274.612L146.953 278.709L194.651 289.931L195.615 285.834L147.917 274.612ZM170.802 308.82H263.346V259.82H170.802V308.82ZM239.381 279.227L214.799 394.907L262.729 405.093L287.311 289.413L239.381 279.227ZM238.764 375.5H184.539V424.5H238.764V375.5ZM208.512 405.055L225.382 325.043L177.436 314.933L160.566 394.945L208.512 405.055ZM201.409 295.488H163.331V344.488H201.409V295.488ZM139.358 314.933L122.488 394.945L170.434 405.055L187.304 325.043L139.358 314.933ZM146.461 375.5H92.2362V424.5H146.461V375.5ZM116.209 405.055L133.079 325.043L85.1332 314.933L68.2632 394.945L116.209 405.055ZM280.969 284.32V259.82H261.129L257.004 279.227L280.969 284.32ZM333.266 284.32L357.169 289.698L363.891 259.82H333.266V284.32ZM331.097 293.96L307.195 288.582L292.7 353.004L345.707 313.627L331.097 293.96ZM349.895 284.32L357.48 307.616L357.641 307.564L357.801 307.509L349.895 284.32ZM400.746 291.068L383.015 307.975L383.117 308.082L383.22 308.187L400.746 291.068ZM409.663 328.423L433.63 333.507L433.66 333.368L433.688 333.228L409.663 328.423ZM394.48 400V424.5H414.328L418.447 405.084L394.48 400ZM340.255 400L316.289 394.916L310.013 424.5H340.255V400ZM353.751 336.376L377.718 341.46L377.933 340.445L378.062 339.415L353.751 336.376ZM324.59 333.484L305.043 318.715L301.74 323.085L300.614 328.445L324.59 333.484ZM310.612 400V424.5H330.499L334.589 405.038L310.612 400ZM256.387 400L232.422 394.907L226.134 424.5H256.387V400ZM280.969 308.82H333.266V259.82H280.969V308.82ZM309.364 278.942L307.195 288.582L355 299.338L357.169 289.698L309.364 278.942ZM345.707 313.627C349.122 311.09 352.999 309.075 357.48 307.616L342.31 261.024C332.974 264.063 324.319 268.475 316.487 274.293L345.707 313.627ZM357.801 307.509C362.47 305.918 366.872 305.205 371.103 305.205V256.205C361.196 256.205 351.46 257.902 341.99 261.13L357.801 307.509ZM371.103 305.205C380.196 305.205 382.591 307.53 383.015 307.975L418.478 274.161C405.727 260.788 388.36 256.205 371.103 256.205V305.205ZM383.22 308.187C385.039 310.05 386.368 312.444 386.368 317.337H435.368C435.368 301.022 429.95 285.903 418.273 273.949L383.22 308.187ZM386.368 317.337C386.368 318.799 386.191 320.86 385.639 323.618L433.688 333.228C434.743 327.952 435.368 322.623 435.368 317.337H386.368ZM385.697 323.339L370.514 394.916L418.447 405.084L433.63 333.507L385.697 323.339ZM394.48 375.5H340.255V424.5H394.48V375.5ZM364.222 405.084L377.718 341.46L329.785 331.292L316.289 394.916L364.222 405.084ZM378.062 339.415C378.341 337.181 378.733 333.924 378.733 331.315H329.733C329.733 331.022 329.74 330.807 329.745 330.698C329.749 330.581 329.754 330.514 329.754 330.506C329.754 330.498 329.747 330.605 329.723 330.86C329.674 331.375 329.585 332.18 329.441 333.337L378.062 339.415ZM378.733 331.315C378.733 324.12 376.694 314.367 368.501 306.805C360.68 299.585 351.279 298.139 344.834 298.139V347.139C344.656 347.139 339.954 347.139 335.266 342.811C330.206 338.141 329.733 332.726 329.733 331.315H378.733ZM344.834 298.139C328.061 298.139 314.457 306.254 305.043 318.715L344.138 348.253C345.122 346.951 345.586 346.803 345.318 346.947C345.2 347.01 345.037 347.075 344.871 347.115C344.71 347.155 344.678 347.139 344.834 347.139V298.139ZM300.614 328.445L286.636 394.962L334.589 405.038L348.567 338.522L300.614 328.445ZM310.612 375.5H256.387V424.5H310.612V375.5ZM280.352 405.093L304.934 289.413L257.004 279.227L232.422 394.907L280.352 405.093ZM428.87 391.565L445.35 373.436L428.87 391.565ZM417.543 342.16L393.584 337.041L393.576 337.077L393.568 337.113L417.543 342.16ZM442.848 297.334L426.96 278.684L426.903 278.732L426.846 278.781L442.848 297.334ZM510.81 283.838L502.279 306.805L502.57 306.913L502.864 307.014L510.81 283.838ZM524.306 291.55L507.409 309.291L539.085 339.459L548.261 296.689L524.306 291.55ZM539.248 221.901V197.401H519.446L515.293 216.762L539.248 221.901ZM593.473 221.901L617.438 226.992L623.725 197.401H593.473V221.901ZM555.636 400V424.5H575.478L579.601 405.091L555.636 400ZM503.339 400L479.315 395.195L473.454 424.5H503.339V400ZM505.267 390.36L529.291 395.165L542.249 330.378L490.184 371.053L505.267 390.36ZM501.893 358.789L491.291 336.702L491.113 336.787L490.936 336.876L501.893 358.789ZM511.774 350.836L531.262 365.684L534.627 361.268L535.759 355.833L511.774 350.836ZM515.389 333.484L539.374 338.481L540.722 332.008L538.632 325.736L515.389 333.484ZM482.131 327.7L467.089 308.361L467.089 308.361L482.131 327.7ZM473.455 342.401L449.552 337.023L449.488 337.309L449.431 337.596L473.455 342.401ZM476.588 358.789L461.138 377.804L461.782 378.327L462.459 378.805L476.588 358.789ZM465.984 379.115C454.112 379.115 448.355 376.168 445.35 373.436L412.389 409.694C427.058 423.029 446.044 428.115 465.984 428.115V379.115ZM445.35 373.436C442.564 370.903 440.115 366.929 440.115 358.307H391.115C391.115 377.963 397.503 396.16 412.389 409.694L445.35 373.436ZM440.115 358.307C440.115 355.803 440.472 352.173 441.517 347.207L393.568 337.113C392.043 344.358 391.115 351.492 391.115 358.307H440.115ZM441.502 347.279C444.557 332.982 450.571 323.027 458.849 315.887L426.846 278.781C409.419 293.813 398.562 313.742 393.584 337.041L441.502 347.279ZM458.735 315.984C466.601 309.284 477.137 305.205 492.253 305.205V256.205C467.523 256.205 445.123 263.212 426.96 278.684L458.735 315.984ZM492.253 305.205C496.45 305.205 499.705 305.849 502.279 306.805L519.34 260.871C510.668 257.65 501.552 256.205 492.253 256.205V305.205ZM502.864 307.014C506.036 308.101 507.195 309.088 507.409 309.291L541.202 273.809C534.668 267.586 526.83 263.431 518.756 260.662L502.864 307.014ZM548.261 296.689L563.203 227.04L515.293 216.762L500.351 286.411L548.261 296.689ZM539.248 246.401H593.473V197.401H539.248V246.401ZM569.508 216.81L531.671 394.909L579.601 405.091L617.438 226.992L569.508 216.81ZM555.636 375.5H503.339V424.5H555.636V375.5ZM527.363 404.805L529.291 395.165L481.243 385.555L479.315 395.195L527.363 404.805ZM490.184 371.053C487.489 373.159 483.891 375.158 479.045 376.811L494.856 423.189C504.149 420.022 512.763 415.594 520.35 409.667L490.184 371.053ZM479.045 376.811C474.315 378.423 469.994 379.115 465.984 379.115V428.115C475.791 428.115 485.448 426.397 494.856 423.189L479.045 376.811ZM489.843 386.181C497.948 386.181 505.704 384.275 512.85 380.702L490.936 336.876C490.37 337.159 490.093 337.181 489.843 337.181V386.181ZM512.495 380.876C519.823 377.359 526.224 372.296 531.262 365.684L492.286 335.988C492.182 336.124 491.996 336.363 491.291 336.702L512.495 380.876ZM535.759 355.833L539.374 338.481L491.404 328.487L487.789 345.839L535.759 355.833ZM538.632 325.736C535.689 316.909 529.961 309.715 522.206 304.817L496.04 346.245C495.377 345.827 494.53 345.138 493.734 344.128C492.935 343.113 492.43 342.083 492.146 341.232L538.632 325.736ZM522.206 304.817C514.654 300.047 506.344 298.139 498.278 298.139V347.139C498.48 347.139 498.285 347.161 497.809 347.035C497.311 346.902 496.683 346.652 496.04 346.245L522.206 304.817ZM498.278 298.139C487.364 298.139 476.43 301.096 467.089 308.361L497.172 347.039C497.093 347.101 496.996 347.164 496.895 347.217C496.795 347.269 496.738 347.286 496.749 347.283C496.764 347.278 497.21 347.139 498.278 347.139V298.139ZM467.089 308.361C457.422 315.88 451.987 326.202 449.552 337.023L497.357 347.779C497.607 346.671 497.845 346.295 497.808 346.358C497.79 346.389 497.724 346.493 497.598 346.637C497.471 346.783 497.324 346.921 497.172 347.039L467.089 308.361ZM449.431 337.596C448.686 341.319 448.232 345.194 448.232 349.149H497.232C497.232 348.927 497.26 348.303 497.479 347.206L449.431 337.596ZM448.232 349.149C448.232 358.406 451.173 369.707 461.138 377.804L492.037 339.774C494.137 341.48 495.609 343.628 496.444 345.713C497.211 347.632 497.232 348.962 497.232 349.149H448.232ZM462.459 378.805C471.533 385.21 482.306 386.181 489.843 386.181V337.181C488.951 337.181 488.284 337.145 487.815 337.102C487.342 337.059 487.144 337.015 487.173 337.021C487.197 337.026 487.552 337.104 488.14 337.342C488.731 337.581 489.648 338.019 490.717 338.773L462.459 378.805ZM588.214 391.083L571.543 409.036L571.622 409.11L571.702 409.183L588.214 391.083ZM576.405 342.16L600.303 347.556L600.33 347.439L600.355 347.322L576.405 342.16ZM601.951 297.575L617.839 316.225L617.848 316.217L617.858 316.209L601.951 297.575ZM669.672 283.838L661.142 306.805L661.433 306.913L661.726 307.014L669.672 283.838ZM683.168 291.55L666.272 309.291L697.293 338.836L707.027 297.117L683.168 291.55ZM684.855 284.32V259.82H665.414L660.996 278.753L684.855 284.32ZM739.08 284.32L763.045 289.413L769.333 259.82H739.08V284.32ZM714.498 400V424.5H734.339L738.463 405.093L714.498 400ZM662.201 400L638.177 395.195L632.316 424.5H662.201V400ZM664.129 390.36L688.153 395.165L701.111 330.378L649.046 371.053L664.129 390.36ZM660.755 358.789L650.153 336.702L649.975 336.787L649.798 336.876L660.755 358.789ZM670.636 350.836L690.124 365.684L693.489 361.268L694.621 355.833L670.636 350.836ZM674.251 333.484L698.236 338.481L699.585 332.008L697.494 325.736L674.251 333.484ZM640.993 327.7L625.952 308.361L625.952 308.361L640.993 327.7ZM632.317 342.401L608.415 337.023L608.35 337.309L608.293 337.596L632.317 342.401ZM635.691 358.548L650.574 339.086L650.574 339.086L635.691 358.548ZM624.846 379.115C614.213 379.115 608.386 376.322 604.726 372.983L571.702 409.183C586.359 422.554 604.953 428.115 624.846 428.115V379.115ZM604.885 373.13C601.654 370.129 599.218 365.801 599.218 357.343H550.218C550.218 377.162 556.78 395.328 571.543 409.036L604.885 373.13ZM599.218 357.343C599.218 354.005 599.581 350.754 600.303 347.556L552.507 336.764C550.98 343.528 550.218 350.399 550.218 357.343H599.218ZM600.355 347.322C603.376 333.305 609.391 323.421 617.839 316.225L586.064 278.925C568.483 293.901 557.468 313.74 552.455 336.998L600.355 347.322ZM617.858 316.209C626.014 309.247 636.529 305.205 651.115 305.205V256.205C626.499 256.205 604.238 263.41 586.044 278.941L617.858 316.209ZM651.115 305.205C655.312 305.205 658.567 305.849 661.142 306.805L678.203 260.871C669.531 257.65 660.414 256.205 651.115 256.205V305.205ZM661.726 307.014C664.899 308.101 666.058 309.088 666.272 309.291L700.065 273.809C693.531 267.586 685.693 263.431 677.618 260.662L661.726 307.014ZM707.027 297.117L708.714 289.887L660.996 278.753L659.309 285.983L707.027 297.117ZM684.855 308.82H739.08V259.82H684.855V308.82ZM715.115 279.227L690.533 394.907L738.463 405.093L763.045 289.413L715.115 279.227ZM714.498 375.5H662.201V424.5H714.498V375.5ZM686.225 404.805L688.153 395.165L640.105 385.555L638.177 395.195L686.225 404.805ZM649.046 371.053C646.351 373.159 642.754 375.158 637.908 376.811L653.719 423.189C663.011 420.022 671.625 415.594 679.212 409.667L649.046 371.053ZM637.908 376.811C633.177 378.423 628.856 379.115 624.846 379.115V428.115C634.654 428.115 644.31 426.397 653.719 423.189L637.908 376.811ZM648.705 386.181C656.81 386.181 664.567 384.275 671.712 380.702L649.798 336.876C649.232 337.159 648.955 337.181 648.705 337.181V386.181ZM671.357 380.876C678.685 377.359 685.087 372.296 690.124 365.684L651.148 335.988C651.044 336.124 650.858 336.363 650.153 336.702L671.357 380.876ZM694.621 355.833L698.236 338.481L650.266 328.487L646.651 345.839L694.621 355.833ZM697.494 325.736C694.551 316.909 688.823 309.715 681.068 304.817L654.902 346.245C654.239 345.827 653.393 345.138 652.597 344.128C651.798 343.113 651.292 342.083 651.008 341.232L697.494 325.736ZM681.068 304.817C673.516 300.047 665.207 298.139 657.14 298.139V347.139C657.342 347.139 657.147 347.161 656.672 347.035C656.173 346.902 655.545 346.652 654.902 346.245L681.068 304.817ZM657.14 298.139C646.226 298.139 635.292 301.096 625.952 308.361L656.035 347.039C655.955 347.101 655.858 347.164 655.757 347.217C655.657 347.269 655.6 347.286 655.611 347.283C655.627 347.278 656.072 347.139 657.14 347.139V298.139ZM625.952 308.361C616.285 315.88 610.849 326.202 608.415 337.023L656.22 347.779C656.469 346.671 656.707 346.295 656.67 346.358C656.652 346.389 656.586 346.493 656.46 346.637C656.333 346.783 656.186 346.921 656.035 347.039L625.952 308.361ZM608.293 337.596C607.576 341.18 607.094 344.998 607.094 348.908H656.094C656.094 348.962 656.094 348.442 656.341 347.206L608.293 337.596ZM607.094 348.908C607.094 358.677 610.459 370.095 620.809 378.01L650.574 339.086C652.629 340.658 654.218 342.758 655.167 344.989C656.043 347.052 656.094 348.558 656.094 348.908H607.094ZM620.809 378.01C629.952 385.001 640.901 386.181 648.705 386.181V337.181C647.069 337.181 646.516 337.027 646.728 337.078C646.932 337.128 648.548 337.537 650.574 339.086L620.809 378.01ZM864.869 267.932L847.888 285.592L848.068 285.765L848.251 285.935L864.869 267.932ZM863.423 235.879L884.199 248.864L884.288 248.721L884.375 248.577L863.423 235.879ZM909.454 225.034L892.13 242.358L892.463 242.691L892.809 243.011L909.454 225.034ZM915.238 246.242L891.47 240.3L891.34 240.819L891.233 241.343L915.238 246.242ZM902.947 266.004L918.252 285.135L918.28 285.113L918.309 285.09L902.947 266.004ZM752.322 319.988L776.295 325.043L782.526 295.488H752.322V319.988ZM737.38 319.988L713.433 314.81L707.017 344.488H737.38V319.988ZM745.092 284.32V259.82H725.323L721.145 279.142L745.092 284.32ZM759.793 284.32V308.82H779.562L783.74 289.498L759.793 284.32ZM761.721 275.403L737.794 270.135L737.784 270.18L737.774 270.225L761.721 275.403ZM787.026 234.915L772.601 215.112L772.601 215.112L787.026 234.915ZM859.567 225.757L883.533 230.845L887.345 212.888L871.182 204.185L859.567 225.757ZM850.409 268.896L838.019 290.032L867.321 307.209L874.375 273.984L850.409 268.896ZM821.73 268.655L836.578 288.143L836.578 288.143L821.73 268.655ZM814.982 280.223L838.831 285.834L838.875 285.647L838.916 285.459L814.982 280.223ZM814.018 284.32L790.169 278.709L783.084 308.82H814.018V284.32ZM906.562 284.32L930.527 289.413L936.815 259.82H906.562V284.32ZM881.98 400V424.5H901.821L905.945 405.093L881.98 400ZM827.755 400L803.782 394.945L797.551 424.5H827.755V400ZM844.625 319.988L868.598 325.043L874.829 295.488H844.625V319.988ZM806.547 319.988V295.488H786.674L782.574 314.933L806.547 319.988ZM789.677 400V424.5H809.55L813.65 405.055L789.677 400ZM735.452 400L711.479 394.945L705.248 424.5H735.452V400ZM881.498 249.216C880.31 249.216 879.979 249.05 880.208 249.13C880.323 249.17 880.53 249.255 880.786 249.408C881.045 249.562 881.285 249.743 881.487 249.929L848.251 285.935C857.885 294.828 869.827 298.216 881.498 298.216V249.216ZM881.85 250.272C881.96 250.377 882.144 250.576 882.348 250.874C882.553 251.174 882.731 251.506 882.868 251.842C883.157 252.555 883.103 252.886 883.103 252.508H834.103C834.103 264.837 838.49 276.556 847.888 285.592L881.85 250.272ZM883.103 252.508C883.103 251.251 883.368 250.193 884.199 248.864L842.647 222.894C837.051 231.847 834.103 241.876 834.103 252.508H883.103ZM884.375 248.577C885.476 246.761 886.751 245.541 888.421 244.579L863.971 202.115C855.037 207.259 847.797 214.393 842.471 223.181L884.375 248.577ZM888.421 244.579C890.118 243.602 891.541 243.268 893.066 243.268V194.268C882.702 194.268 872.878 196.986 863.971 202.115L888.421 244.579ZM893.066 243.268C893.903 243.268 893.931 243.393 893.474 243.219C893.256 243.135 892.995 243.008 892.728 242.834C892.461 242.661 892.26 242.488 892.13 242.358L926.778 207.71C917.342 198.273 905.307 194.268 893.066 194.268V243.268ZM892.809 243.011C892.578 242.798 892.109 242.251 891.761 241.426C891.426 240.633 891.461 240.195 891.461 240.458H940.461C940.461 227.826 935.773 216.013 926.099 207.057L892.809 243.011ZM891.461 240.458C891.461 240.398 891.465 240.347 891.469 240.311C891.474 240.275 891.477 240.27 891.47 240.3L939.006 252.184C939.959 248.373 940.461 244.45 940.461 240.458H891.461ZM891.233 241.343C890.83 243.315 889.979 244.991 887.585 246.918L918.309 285.09C929.089 276.413 936.432 264.914 939.243 251.141L891.233 241.343ZM887.642 246.873C885.347 248.709 883.541 249.216 881.498 249.216V298.216C895.201 298.216 907.694 293.582 918.252 285.135L887.642 246.873ZM752.322 295.488H737.38V344.488H752.322V295.488ZM761.327 325.166L769.039 289.498L721.145 279.142L713.433 314.81L761.327 325.166ZM745.092 308.82H759.793V259.82H745.092V308.82ZM783.74 289.498L785.668 280.581L737.774 270.225L735.846 279.142L783.74 289.498ZM785.648 280.671C788.375 268.287 793.833 260.267 801.451 254.718L772.601 215.112C754.191 228.521 742.779 247.494 737.794 270.135L785.648 280.671ZM801.451 254.718C809.638 248.755 820.203 245.196 834.503 245.196V196.196C811.528 196.196 790.442 202.117 772.601 215.112L801.451 254.718ZM834.503 245.196C842.651 245.196 846.537 246.567 847.952 247.329L871.182 204.185C860.065 198.199 847.241 196.196 834.503 196.196V245.196ZM835.601 220.669L826.443 263.808L874.375 273.984L883.533 230.845L835.601 220.669ZM862.799 247.76C854.224 242.733 844.777 240.299 834.985 240.299V289.299C836.44 289.299 837.275 289.596 838.019 290.032L862.799 247.76ZM834.985 240.299C825.713 240.299 815.614 242.514 806.882 249.167L836.578 288.143C835.672 288.834 834.856 289.16 834.418 289.288C834.034 289.4 834.15 289.299 834.985 289.299V240.299ZM806.882 249.167C797.851 256.048 793.106 265.581 791.048 274.987L838.916 285.459C839.027 284.952 839.047 285.183 838.675 285.82C838.269 286.516 837.576 287.383 836.578 288.143L806.882 249.167ZM791.133 274.612L790.169 278.709L837.867 289.931L838.831 285.834L791.133 274.612ZM814.018 308.82H906.562V259.82H814.018V308.82ZM882.597 279.227L858.015 394.907L905.945 405.093L930.527 289.413L882.597 279.227ZM881.98 375.5H827.755V424.5H881.98V375.5ZM851.728 405.055L868.598 325.043L820.652 314.933L803.782 394.945L851.728 405.055ZM844.625 295.488H806.547V344.488H844.625V295.488ZM782.574 314.933L765.704 394.945L813.65 405.055L830.52 325.043L782.574 314.933ZM789.677 375.5H735.452V424.5H789.677V375.5ZM759.425 405.055L776.295 325.043L728.349 314.933L711.479 394.945L759.425 405.055ZM937.44 221.901V197.401H917.598L913.475 216.81L937.44 221.901ZM991.665 221.901L1015.63 226.992L1021.92 197.401H991.665V221.901ZM953.828 400V424.5H973.67L977.793 405.091L953.828 400ZM899.603 400L875.638 394.909L869.351 424.5H899.603V400ZM937.44 246.401H991.665V197.401H937.44V246.401ZM967.7 216.81L929.863 394.909L977.793 405.091L1015.63 226.992L967.7 216.81ZM953.828 375.5H899.603V424.5H953.828V375.5ZM923.568 405.091L961.405 226.992L913.475 216.81L875.638 394.909L923.568 405.091ZM995.261 284.32V259.82H975.42L971.296 279.227L995.261 284.32ZM1045.15 284.32L1069.05 289.698L1075.77 259.82H1045.15V284.32ZM1042.98 293.96L1019.08 288.582L1003.61 357.311L1058.39 313.009L1042.98 293.96ZM1099.37 284.079L1088.42 305.992L1088.73 306.151L1089.06 306.301L1099.37 284.079ZM1110.22 293.719L1089.49 306.773L1103.32 328.752L1124.46 313.655L1110.22 293.719ZM1129.02 284.32L1136.6 307.616L1136.76 307.564L1136.92 307.509L1129.02 284.32ZM1177.22 288.658L1160.15 306.239L1160.41 306.493L1160.68 306.74L1177.22 288.658ZM1183.48 328.423L1159.61 322.914L1159.56 323.126L1159.52 323.339L1183.48 328.423ZM1168.3 400V424.5H1188.15L1192.27 405.084L1168.3 400ZM1116.48 400L1092.52 394.916L1086.24 424.5H1116.48V400ZM1129.98 336.376L1153.95 341.46L1153.98 341.321L1154 341.181L1129.98 336.376ZM1128.78 324.567L1146.1 307.243L1146.1 307.243L1128.78 324.567ZM1112.63 325.049L1100.73 303.632L1090.98 309.05L1088.66 319.963L1112.63 325.049ZM1096.72 400V424.5H1116.57L1120.69 405.086L1096.72 400ZM1044.91 400L1020.93 394.944L1014.7 424.5H1044.91V400ZM1058.89 333.725L1082.86 338.781L1083.02 337.99L1083.14 337.19L1058.89 333.725ZM1036.95 331.797L1017.23 317.264L1014.09 321.531L1012.99 326.716L1036.95 331.797ZM1022.49 400V424.5H1042.34L1046.46 405.081L1022.49 400ZM970.679 400L946.714 394.907L940.426 424.5H970.679V400ZM995.261 308.82H1045.15V259.82H995.261V308.82ZM1021.25 278.942L1019.08 288.582L1066.88 299.338L1069.05 289.698L1021.25 278.942ZM1058.39 313.009C1064.98 307.679 1072 305.205 1080.33 305.205V256.205C1060.72 256.205 1042.83 262.568 1027.57 274.911L1058.39 313.009ZM1080.33 305.205C1083.36 305.205 1085.52 305.417 1086.96 305.673C1088.43 305.933 1088.77 306.17 1088.42 305.992L1110.33 262.166C1100.94 257.47 1090.21 256.205 1080.33 256.205V305.205ZM1089.06 306.301C1089.14 306.339 1089.17 306.362 1089.18 306.366C1089.18 306.368 1089.18 306.369 1089.18 306.368C1089.18 306.367 1089.18 306.366 1089.18 306.367C1089.18 306.368 1089.19 306.373 1089.2 306.383C1089.21 306.393 1089.22 306.411 1089.25 306.439C1089.29 306.493 1089.38 306.598 1089.49 306.773L1130.95 280.665C1125.79 272.473 1118.62 266.004 1109.69 261.857L1089.06 306.301ZM1124.46 313.655C1127.95 311.165 1131.95 309.132 1136.6 307.616L1121.43 261.024C1112.27 264.007 1103.74 268.24 1095.98 273.783L1124.46 313.655ZM1136.92 307.509C1141.65 305.897 1145.97 305.205 1149.98 305.205V256.205C1140.18 256.205 1130.52 257.923 1121.11 261.13L1136.92 307.509ZM1149.98 305.205C1154.75 305.205 1157.75 305.716 1159.44 306.211C1161.06 306.684 1160.9 306.962 1160.15 306.239L1194.28 271.077C1182.01 259.169 1165.05 256.205 1149.98 256.205V305.205ZM1160.68 306.74C1160.51 306.582 1160.5 306.444 1160.61 306.747C1160.77 307.175 1161.15 308.469 1161.15 311.071H1210.15C1210.15 296.482 1205.81 281.603 1193.75 270.576L1160.68 306.74ZM1161.15 311.071C1161.15 314.176 1160.72 318.087 1159.61 322.914L1207.35 333.932C1209.13 326.227 1210.15 318.57 1210.15 311.071H1161.15ZM1159.52 323.339L1144.33 394.916L1192.27 405.084L1207.45 333.507L1159.52 323.339ZM1168.3 375.5H1116.48V424.5H1168.3V375.5ZM1140.45 405.084L1153.95 341.46L1106.01 331.292L1092.52 394.916L1140.45 405.084ZM1154 341.181C1154.66 337.926 1155.2 334.18 1155.2 330.351H1106.2C1106.2 329.967 1106.23 329.872 1106.2 330.143C1106.17 330.398 1106.1 330.863 1105.96 331.571L1154 341.181ZM1155.2 330.351C1155.2 324.004 1153.6 314.743 1146.1 307.243L1111.45 341.891C1106.52 336.961 1106.2 331.557 1106.2 330.351H1155.2ZM1146.1 307.243C1137.94 299.082 1127.66 298.139 1122.27 298.139V347.139C1122.2 347.139 1121.03 347.147 1119.22 346.612C1117.34 346.052 1114.32 344.758 1111.45 341.891L1146.1 307.243ZM1122.27 298.139C1114.86 298.139 1107.51 299.865 1100.73 303.632L1124.53 346.466C1124.1 346.705 1123.62 346.892 1123.15 347.01C1122.69 347.126 1122.37 347.139 1122.27 347.139V298.139ZM1088.66 319.963L1072.76 394.914L1120.69 405.086L1136.59 330.135L1088.66 319.963ZM1096.72 375.5H1044.91V424.5H1096.72V375.5ZM1068.88 405.056L1082.86 338.781L1034.91 328.669L1020.93 394.944L1068.88 405.056ZM1083.14 337.19C1083.39 335.439 1083.87 332.126 1083.87 329.387H1034.87C1034.87 328.98 1034.88 328.671 1034.89 328.5C1034.9 328.319 1034.91 328.194 1034.91 328.141C1034.92 328.043 1034.92 328.065 1034.9 328.248C1034.88 328.419 1034.85 328.672 1034.8 329.02C1034.76 329.364 1034.7 329.776 1034.63 330.26L1083.14 337.19ZM1083.87 329.387C1083.87 322.681 1081.9 313.348 1073.92 306.144C1066.42 299.369 1057.58 298.139 1051.9 298.139V347.139C1051.19 347.139 1046.09 347.034 1041.08 342.508C1035.59 337.554 1034.87 331.594 1034.87 329.387H1083.87ZM1051.9 298.139C1035.9 298.139 1024.43 307.5 1017.23 317.264L1056.68 346.33C1057.58 345.1 1057.74 345.279 1056.87 345.817C1056.4 346.105 1055.69 346.457 1054.76 346.727C1053.83 347.001 1052.85 347.139 1051.9 347.139V298.139ZM1012.99 326.716L998.527 394.919L1046.46 405.081L1060.92 336.878L1012.99 326.716ZM1022.49 375.5H970.679V424.5H1022.49V375.5ZM994.644 405.093L1019.23 289.413L971.296 279.227L946.714 394.907L994.644 405.093Z" fill="white"/>
<path d="M238.282 273.716C231.374 273.716 225.831 271.788 221.653 267.932C217.476 263.915 215.387 258.774 215.387 252.508C215.387 246.563 216.994 241.02 220.207 235.879C223.421 230.577 227.678 226.4 232.98 223.347C238.282 220.294 243.906 218.768 249.85 218.768C256.598 218.768 262.061 220.857 266.238 225.034C270.576 229.051 272.745 234.192 272.745 240.458C272.745 242.386 272.504 244.314 272.022 246.242C270.416 254.115 266.319 260.702 259.731 266.004C253.305 271.145 246.155 273.716 238.282 273.716ZM109.106 319.988H94.1642L101.876 284.32H116.577L118.505 275.403C122.361 257.89 130.796 244.394 143.81 234.915C156.824 225.436 172.65 220.696 191.287 220.696C201.731 220.696 210.085 222.383 216.351 225.757L207.193 268.896C202.534 266.165 197.393 264.799 191.769 264.799C186.307 264.799 181.888 266.084 178.514 268.655C175.14 271.226 172.891 275.082 171.766 280.223L170.802 284.32H263.346L238.764 400H184.539L201.409 319.988H163.331L146.461 400H92.2362L109.106 319.988ZM280.969 284.32H333.266L331.097 293.96C336.721 289.783 342.987 286.569 349.895 284.32C356.965 281.91 364.034 280.705 371.103 280.705C384.278 280.705 394.159 284.159 400.746 291.068C407.494 297.977 410.868 306.733 410.868 317.337C410.868 320.711 410.467 324.406 409.663 328.423L394.48 400H340.255L353.751 336.376C354.073 333.805 354.233 332.118 354.233 331.315C354.233 325.531 351.1 322.639 344.834 322.639C336.801 322.639 330.053 326.254 324.59 333.484L310.612 400H256.387L280.969 284.32ZM465.984 403.615C450.078 403.615 437.707 399.598 428.87 391.565C420.033 383.532 415.615 372.446 415.615 358.307C415.615 353.648 416.258 348.265 417.543 342.16C421.56 323.362 429.995 308.42 442.848 297.334C455.862 286.248 472.33 280.705 492.253 280.705C499.001 280.705 505.187 281.749 510.81 283.838C516.433 285.766 520.932 288.337 524.306 291.55L539.248 221.901H593.473L555.636 400H503.339L505.267 390.36C500.126 394.377 494.02 397.59 486.951 400C479.882 402.41 472.893 403.615 465.984 403.615ZM489.843 361.681C494.02 361.681 498.037 360.717 501.893 358.789C505.91 356.861 509.203 354.21 511.774 350.836L515.389 333.484C514.264 330.11 512.176 327.459 509.123 325.531C506.07 323.603 502.455 322.639 498.278 322.639C491.851 322.639 486.469 324.326 482.131 327.7C477.793 331.074 474.901 335.974 473.455 342.401C472.973 344.811 472.732 347.06 472.732 349.149C472.732 353.487 474.017 356.7 476.588 358.789C479.319 360.717 483.738 361.681 489.843 361.681ZM624.846 403.615C609.583 403.615 597.372 399.438 588.214 391.083C579.217 382.728 574.718 371.482 574.718 357.343C574.718 352.202 575.281 347.141 576.405 342.16C580.422 323.523 588.937 308.661 601.951 297.575C615.126 286.328 631.514 280.705 651.115 280.705C657.863 280.705 664.049 281.749 669.672 283.838C675.296 285.766 679.794 288.337 683.168 291.55L684.855 284.32H739.08L714.498 400H662.201L664.129 390.36C658.988 394.377 652.883 397.59 645.813 400C638.744 402.41 631.755 403.615 624.846 403.615ZM648.705 361.681C652.883 361.681 656.899 360.717 660.755 358.789C664.772 356.861 668.066 354.21 670.636 350.836L674.251 333.484C673.127 330.11 671.038 327.459 667.985 325.531C664.933 323.603 661.318 322.639 657.14 322.639C650.714 322.639 645.331 324.326 640.993 327.7C636.655 331.074 633.763 335.974 632.317 342.401C631.835 344.811 631.594 346.98 631.594 348.908C631.594 353.246 632.96 356.459 635.691 358.548C638.423 360.637 642.761 361.681 648.705 361.681ZM881.498 273.716C874.589 273.716 869.046 271.788 864.869 267.932C860.692 263.915 858.603 258.774 858.603 252.508C858.603 246.563 860.21 241.02 863.423 235.879C866.636 230.577 870.894 226.4 876.196 223.347C881.498 220.294 887.121 218.768 893.066 218.768C899.814 218.768 905.277 220.857 909.454 225.034C913.792 229.051 915.961 234.192 915.961 240.458C915.961 242.386 915.72 244.314 915.238 246.242C913.631 254.115 909.534 260.702 902.947 266.004C896.52 271.145 889.371 273.716 881.498 273.716ZM752.322 319.988H737.38L745.092 284.32H759.793L761.721 275.403C765.577 257.89 774.012 244.394 787.026 234.915C800.04 225.436 815.866 220.696 834.503 220.696C844.946 220.696 853.301 222.383 859.567 225.757L850.409 268.896C845.75 266.165 840.608 264.799 834.985 264.799C829.522 264.799 825.104 266.084 821.73 268.655C818.356 271.226 816.107 275.082 814.982 280.223L814.018 284.32H906.562L881.98 400H827.755L844.625 319.988H806.547L789.677 400H735.452L752.322 319.988ZM937.44 221.901H991.665L953.828 400H899.603L937.44 221.901ZM995.261 284.32H1045.15L1042.98 293.96C1053.9 285.123 1066.36 280.705 1080.33 280.705C1088.53 280.705 1094.87 281.83 1099.37 284.079C1103.87 286.168 1107.49 289.381 1110.22 293.719C1115.84 289.702 1122.11 286.569 1129.02 284.32C1136.09 281.91 1143.07 280.705 1149.98 280.705C1162.68 280.705 1171.75 283.356 1177.22 288.658C1182.84 293.799 1185.65 301.27 1185.65 311.071C1185.65 316.373 1184.93 322.157 1183.48 328.423L1168.3 400H1116.48L1129.98 336.376C1130.46 333.966 1130.7 331.958 1130.7 330.351C1130.7 327.78 1130.06 325.852 1128.78 324.567C1127.49 323.282 1125.32 322.639 1122.27 322.639C1118.73 322.639 1115.52 323.442 1112.63 325.049L1096.72 400H1044.91L1058.89 333.725C1059.21 331.476 1059.37 330.03 1059.37 329.387C1059.37 324.888 1056.88 322.639 1051.9 322.639C1046.43 322.639 1041.45 325.692 1036.95 331.797L1022.49 400H970.679L995.261 284.32Z" fill="black"/>
<rect x="0.5" y="0.5" width="1279" height="639" stroke="black"/>
<defs>
<linearGradient id="paint0_linear" x1="696.895" y1="559.509" x2="779.406" y2="559.509" gradientUnits="userSpaceOnUse">
<stop stop-color="#90CEA1"/>
<stop offset="0.56" stop-color="#3CBEC9"/>
<stop offset="1" stop-color="#00B3E5"/>
</linearGradient>
<linearGradient id="paint1_linear" x1="496.92" y1="580" x2="687" y2="580" gradientUnits="userSpaceOnUse">
<stop stop-color="#8BCDA4"/>
<stop offset="1" stop-color="#07B4E2"/>
</linearGradient>
</defs>
</svg>
