<svg width="1200" height="647" viewBox="0 0 1200 647" fill="none" xmlns="http://www.w3.org/2000/svg">
<rect width="1200" height="647" fill="white"/>
<rect y="323" width="1200" height="324" fill="#444444"/>
<path d="M167.799 441.112V424.966H150.411V399.574L129.711 414.892V424.966H118.809V441.112H129.711V471.334C129.711 488.722 141.165 494.518 153.999 494.518C158.829 494.518 163.245 493.828 167.661 492.31L167.799 476.164C164.763 477.13 161.727 477.682 158.967 477.682C150.411 477.682 150.411 472.024 150.411 469.402V441.112H167.799ZM175.093 415.582H196.345V396.814H175.093V415.582ZM175.231 493H196.069V424.966H175.231V493ZM286.831 423.448C278.965 423.448 270.961 425.794 265.027 436.972C260.611 426.07 252.193 423.448 245.293 423.448C239.083 423.448 231.907 425.656 227.353 433.798V424.966H207.343L207.481 493H228.319V471.058C228.319 458.224 225.421 441.526 239.773 441.526C249.847 441.526 248.881 453.532 248.881 455.188V493H269.581V471.058C269.581 458.224 266.545 441.526 280.483 441.526C289.039 441.526 290.143 450.496 290.143 455.602V493H310.981V449.116C310.981 436.834 303.253 423.448 286.831 423.448ZM399.937 423.448C392.071 423.448 384.067 425.794 378.133 436.972C373.717 426.07 365.299 423.448 358.399 423.448C352.189 423.448 345.013 425.656 340.459 433.798V424.966H320.449L320.587 493H341.425V471.058C341.425 458.224 338.527 441.526 352.879 441.526C362.953 441.526 361.987 453.532 361.987 455.188V493H382.687V471.058C382.687 458.224 379.651 441.526 393.589 441.526C402.145 441.526 403.249 450.496 403.249 455.602V493H424.087V449.116C424.087 436.834 416.359 423.448 399.937 423.448ZM434.827 521.152H457.321L496.789 424.966H474.019L458.563 466.918L445.039 424.966H422.131L447.385 490.654L434.827 521.152ZM536.799 423.448C529.761 423.448 522.723 426.208 518.583 430.348V396.814H497.745V493H518.583V487.894C523.275 492.724 530.451 494.518 536.385 494.518C554.049 494.518 564.123 479.338 564.123 458.914C564.123 436.144 551.703 423.448 536.799 423.448ZM530.865 475.06C520.239 475.06 516.651 467.884 516.651 459.19C516.651 450.772 519.825 442.492 530.589 442.492C539.973 442.492 543.423 448.564 543.423 459.19C543.423 469.954 539.697 475.06 530.865 475.06ZM569.533 521.152H592.027L631.495 424.966H608.725L593.269 466.918L579.745 424.966H556.837L582.091 490.654L569.533 521.152ZM675.186 441.112V424.966H657.798V399.574L637.098 414.892V424.966H626.196V441.112H637.098V471.334C637.098 488.722 648.552 494.518 661.386 494.518C666.216 494.518 670.632 493.828 675.048 492.31L675.186 476.164C672.15 477.13 669.114 477.682 666.354 477.682C657.798 477.682 657.798 472.024 657.798 469.402V441.112H675.186ZM742.113 459.604C742.113 438.628 730.935 423.448 709.683 423.448C685.395 423.448 676.149 442.354 676.149 459.328C676.149 476.854 685.671 494.518 710.787 494.518C722.793 494.518 732.453 489.964 739.629 481.822L725.277 469.126C721.413 473.818 716.031 475.75 710.925 475.75C701.955 475.75 697.815 471.61 696.987 466.228H741.699C741.975 463.33 742.113 461.536 742.113 459.604ZM696.711 450.91C697.539 446.494 700.713 440.698 709.407 440.698C716.307 440.698 721.965 444.562 722.241 450.91H696.711ZM721.965 453.532L722.103 453.394L721.965 453.532ZM769.69 494.518C782.386 494.518 797.428 487.618 797.428 470.506C797.428 444.838 764.032 451.6 764.032 442.63C764.032 440.422 765.964 438.766 769.828 438.766C776.59 438.766 779.35 444.286 781.006 447.322L797.014 438.49C791.632 429.52 782.662 423.448 770.104 423.448C757.822 423.448 744.436 429.382 744.436 444.7C744.436 468.712 777.004 464.02 777.004 473.404C777.004 475.474 775.348 477.958 769.552 477.958C760.306 477.958 758.512 471.196 757.132 467.47L740.71 474.784C743.884 484.72 754.648 494.518 769.69 494.518ZM806.207 493H825.527V473.404H806.207V493ZM868.024 494.518C882.238 494.518 893.002 486.514 897.556 473.68L878.788 466.366C877.546 472.438 873.13 476.44 867.748 476.44C857.95 476.44 855.052 467.884 855.052 459.19C855.052 450.358 858.226 441.526 867.886 441.526C873.406 441.526 877.684 445.666 878.65 452.014L898.246 444.148C893.14 430.21 882.238 423.448 867.886 423.448C844.702 423.448 833.662 441.25 833.662 459.19C833.662 476.578 844.288 494.518 868.024 494.518ZM930.336 494.518C952.14 494.518 965.25 477.544 965.25 458.914C965.25 440.146 952.278 423.448 930.336 423.448C908.118 423.448 895.284 440.284 895.284 458.914C895.284 477.544 908.256 494.518 930.336 494.518ZM930.336 476.44C918.882 476.44 916.122 467.194 916.122 458.914C916.122 450.22 919.02 441.526 930.336 441.526C941.652 441.526 944.412 450.358 944.412 458.914C944.412 467.47 941.514 476.44 930.336 476.44ZM1049.89 423.448C1042.02 423.448 1034.02 425.794 1028.08 436.972C1023.67 426.07 1015.25 423.448 1008.35 423.448C1002.14 423.448 994.961 425.656 990.407 433.798V424.966H970.397L970.535 493H991.373V471.058C991.373 458.224 988.475 441.526 1002.83 441.526C1012.9 441.526 1011.94 453.532 1011.94 455.188V493H1032.64V471.058C1032.64 458.224 1029.6 441.526 1043.54 441.526C1052.09 441.526 1053.2 450.496 1053.2 455.602V493H1074.04V449.116C1074.04 436.834 1066.31 423.448 1049.89 423.448Z" fill="#FDFDFD"/>
<path d="M119 297C119 291.477 123.477 287 129 287H400V371H129C123.477 371 119 366.523 119 361V297Z" fill="#FF90AD"/>
<path d="M158.895 308.574V322.726C157.097 320.928 154.197 319.768 151.355 319.768C144.917 319.768 139.697 325.104 139.697 334.674C139.697 343.258 143.931 349.638 151.355 349.638C153.849 349.638 156.865 348.884 158.895 346.854V349H167.595V308.574H158.895ZM153.733 341.46C150.543 341.46 148.455 339.314 148.455 334.79C148.455 330.382 150.427 327.772 153.791 327.772C158.373 327.772 159.707 331.31 159.707 334.79C159.707 338.444 158.199 341.46 153.733 341.46ZM198.257 334.964C198.257 326.148 193.559 319.768 184.627 319.768C174.419 319.768 170.533 327.714 170.533 334.848C170.533 342.214 174.535 349.638 185.091 349.638C190.137 349.638 194.197 347.724 197.213 344.302L191.181 338.966C189.557 340.938 187.295 341.75 185.149 341.75C181.379 341.75 179.639 340.01 179.291 337.748H198.083C198.199 336.53 198.257 335.776 198.257 334.964ZM179.175 331.31C179.523 329.454 180.857 327.018 184.511 327.018C187.411 327.018 189.789 328.642 189.905 331.31H179.175ZM189.789 332.412L189.847 332.354L189.789 332.412ZM208.514 349H215.648L227.248 320.406H217.852L212.052 337.574L206.426 320.406H196.856L208.514 349ZM252.691 334.964C252.691 326.148 247.993 319.768 239.061 319.768C228.853 319.768 224.967 327.714 224.967 334.848C224.967 342.214 228.969 349.638 239.525 349.638C244.571 349.638 248.631 347.724 251.647 344.302L245.615 338.966C243.991 340.938 241.729 341.75 239.583 341.75C235.813 341.75 234.073 340.01 233.725 337.748H252.517C252.633 336.53 252.691 335.776 252.691 334.964ZM233.609 331.31C233.957 329.454 235.291 327.018 238.945 327.018C241.845 327.018 244.223 328.642 244.339 331.31H233.609ZM244.223 332.412L244.281 332.354L244.223 332.412ZM262.774 349.638C264.05 349.638 265.79 349.406 267.588 348.71V341.866C266.892 342.04 266.196 342.098 265.732 342.098C264.63 342.098 264.05 341.924 264.05 340.59V308.574H255.292V341.75C255.292 347.26 258.598 349.638 262.774 349.638ZM282.688 349.638C291.852 349.638 297.362 342.504 297.362 334.674C297.362 326.786 291.91 319.768 282.688 319.768C273.35 319.768 267.956 326.844 267.956 334.674C267.956 342.504 273.408 349.638 282.688 349.638ZM282.688 342.04C277.874 342.04 276.714 338.154 276.714 334.674C276.714 331.02 277.932 327.366 282.688 327.366C287.444 327.366 288.604 331.078 288.604 334.674C288.604 338.27 287.386 342.04 282.688 342.04ZM316.403 319.768C313.909 319.768 310.893 320.522 308.921 322.552V320.406H300.163V360.832H308.921V346.738C310.719 348.536 313.677 349.638 316.403 349.638C322.609 349.638 328.061 344.592 328.061 334.79C328.061 326.38 324.059 319.768 316.403 319.768ZM313.967 342.04C309.617 342.04 308.109 338.734 308.109 334.674C308.109 330.614 309.443 327.424 314.083 327.424C317.563 327.424 319.361 329.744 319.361 334.674C319.361 339.662 317.563 342.04 313.967 342.04ZM357.028 334.964C357.028 326.148 352.33 319.768 343.398 319.768C333.19 319.768 329.304 327.714 329.304 334.848C329.304 342.214 333.306 349.638 343.862 349.638C348.908 349.638 352.968 347.724 355.984 344.302L349.952 338.966C348.328 340.938 346.066 341.75 343.92 341.75C340.15 341.75 338.41 340.01 338.062 337.748H356.854C356.97 336.53 357.028 335.776 357.028 334.964ZM337.946 331.31C338.294 329.454 339.628 327.018 343.282 327.018C346.182 327.018 348.56 328.642 348.676 331.31H337.946ZM348.56 332.412L348.618 332.354L348.56 332.412ZM375.984 319.768C372.91 319.768 370.126 321.74 368.792 324.756V320.406H359.976V349H368.734V335.718C368.734 330.672 370.764 328.468 373.838 328.468C375.23 328.468 376.738 328.99 377.55 329.512L381.726 321.624C379.696 320.29 377.956 319.768 375.984 319.768Z" fill="#444444"/>
<path d="M400 287H646V371H400V287Z" fill="#FFDF85"/>
<path d="M438.439 308.574V322.726C436.641 320.928 433.741 319.768 430.899 319.768C424.461 319.768 419.241 325.104 419.241 334.674C419.241 343.258 423.475 349.638 430.899 349.638C433.393 349.638 436.409 348.884 438.439 346.854V349H447.139V308.574H438.439ZM433.277 341.46C430.087 341.46 427.999 339.314 427.999 334.79C427.999 330.382 429.971 327.772 433.335 327.772C437.917 327.772 439.251 331.31 439.251 334.79C439.251 338.444 437.743 341.46 433.277 341.46ZM477.801 334.964C477.801 326.148 473.103 319.768 464.171 319.768C453.963 319.768 450.077 327.714 450.077 334.848C450.077 342.214 454.079 349.638 464.635 349.638C469.681 349.638 473.741 347.724 476.757 344.302L470.725 338.966C469.101 340.938 466.839 341.75 464.693 341.75C460.923 341.75 459.183 340.01 458.835 337.748H477.627C477.743 336.53 477.801 335.776 477.801 334.964ZM458.719 331.31C459.067 329.454 460.401 327.018 464.055 327.018C466.955 327.018 469.333 328.642 469.449 331.31H458.719ZM469.333 332.412L469.391 332.354L469.333 332.412ZM489.972 349.638C495.308 349.638 501.63 346.738 501.63 339.546C501.63 328.758 487.594 331.6 487.594 327.83C487.594 326.902 488.406 326.206 490.03 326.206C492.872 326.206 494.032 328.526 494.728 329.802L501.456 326.09C499.194 322.32 495.424 319.768 490.146 319.768C484.984 319.768 479.358 322.262 479.358 328.7C479.358 338.792 493.046 336.82 493.046 340.764C493.046 341.634 492.35 342.678 489.914 342.678C486.028 342.678 485.274 339.836 484.694 338.27L477.792 341.344C479.126 345.52 483.65 349.638 489.972 349.638ZM504.624 316.462H513.556V308.574H504.624V316.462ZM504.682 349H513.44V320.406H504.682V349ZM530.242 344.128C526.646 343.722 524.384 343.374 524.384 341.692C524.384 341.344 524.442 341.054 524.616 340.706C526.24 341.344 528.038 341.634 530.01 341.634C537.202 341.634 542.074 337.458 542.074 331.078C542.074 329.28 541.668 327.714 541.03 326.264L545.322 322.842L540.74 317.332L536.1 321.276C534.186 320.29 531.982 319.768 529.72 319.768C523.166 319.768 517.482 324.118 517.482 330.788C517.482 333.282 518.294 335.544 519.686 337.284C518.178 338.792 517.308 340.648 517.308 343.084C517.308 346.274 518.816 348.246 520.962 349.464L516.728 351.03C516.554 351.726 516.496 352.422 516.496 352.944C516.496 358.512 522.238 362.05 530.532 362.05C538.362 362.05 544.104 358.918 544.104 352.422C544.104 346.042 538.536 345.114 530.242 344.128ZM529.836 327.018C532.098 327.018 533.374 328.526 533.374 330.788C533.374 332.934 532.388 334.79 529.836 334.79C527.226 334.79 526.24 332.934 526.24 330.788C526.24 328.584 527.516 327.018 529.836 327.018ZM530.938 355.728C527.226 355.728 525.312 354.684 525.312 353.234C525.312 353.118 525.312 352.944 525.37 352.828L526.994 351.204C527.574 351.32 528.154 351.378 528.676 351.436C531.866 351.784 535.404 351.9 535.404 353.814C535.404 354.8 534.418 355.728 530.938 355.728ZM563.929 319.768C560.913 319.768 557.955 320.464 555.809 323.074V320.406H547.051V349H555.809V335.66C555.809 332.528 555.809 327.366 561.203 327.366C565.727 327.366 565.727 331.02 565.727 333.224V349H574.485V329.976C574.485 323.712 570.541 319.768 563.929 319.768ZM604.484 334.964C604.484 326.148 599.786 319.768 590.854 319.768C580.646 319.768 576.76 327.714 576.76 334.848C576.76 342.214 580.762 349.638 591.318 349.638C596.364 349.638 600.424 347.724 603.44 344.302L597.408 338.966C595.784 340.938 593.522 341.75 591.376 341.75C587.606 341.75 585.866 340.01 585.518 337.748H604.31C604.426 336.53 604.484 335.776 604.484 334.964ZM585.402 331.31C585.75 329.454 587.084 327.018 590.738 327.018C593.638 327.018 596.016 328.642 596.132 331.31H585.402ZM596.016 332.412L596.074 332.354L596.016 332.412ZM623.44 319.768C620.366 319.768 617.582 321.74 616.248 324.756V320.406H607.432V349H616.19V335.718C616.19 330.672 618.22 328.468 621.294 328.468C622.686 328.468 624.194 328.99 625.006 329.512L629.182 321.624C627.152 320.29 625.412 319.768 623.44 319.768Z" fill="#444444"/>
<path d="M646 287H840V371H646V287Z" fill="#B8DCFF"/>
<path d="M676.768 349H684.598L688.948 332.876L693.414 349H701.128L710.234 320.406H700.896L696.72 335.428L692.602 320.406H685.236L681.118 335.544L677 320.406H667.72L676.768 349ZM727.633 319.768C724.559 319.768 721.775 321.74 720.441 324.756V320.406H711.625V349H720.383V335.718C720.383 330.672 722.413 328.468 725.487 328.468C726.879 328.468 728.387 328.99 729.199 329.512L733.375 321.624C731.345 320.29 729.605 319.768 727.633 319.768ZM734.196 316.462H743.128V308.574H734.196V316.462ZM734.254 349H743.012V320.406H734.254V349ZM765.556 327.192V320.406H758.248V309.734L749.548 316.172V320.406H744.966V327.192H749.548V339.894C749.548 347.202 754.362 349.638 759.756 349.638C761.786 349.638 763.642 349.348 765.498 348.71L765.556 341.924C764.28 342.33 763.004 342.562 761.844 342.562C758.248 342.562 758.248 340.184 758.248 339.082V327.192H765.556ZM794.265 334.964C794.265 326.148 789.567 319.768 780.635 319.768C770.427 319.768 766.541 327.714 766.541 334.848C766.541 342.214 770.543 349.638 781.099 349.638C786.145 349.638 790.205 347.724 793.221 344.302L787.189 338.966C785.565 340.938 783.303 341.75 781.157 341.75C777.387 341.75 775.647 340.01 775.299 337.748H794.091C794.207 336.53 794.265 335.776 794.265 334.964ZM775.183 331.31C775.531 329.454 776.865 327.018 780.519 327.018C783.419 327.018 785.797 328.642 785.913 331.31H775.183ZM785.797 332.412L785.855 332.354L785.797 332.412ZM813.221 319.768C810.147 319.768 807.363 321.74 806.029 324.756V320.406H797.213V349H805.971V335.718C805.971 330.672 808.001 328.468 811.075 328.468C812.467 328.468 813.975 328.99 814.787 329.512L818.963 321.624C816.933 320.29 815.193 319.768 813.221 319.768Z" fill="#444444"/>
<path d="M840 287H1071C1076.52 287 1081 291.477 1081 297V361C1081 366.523 1076.52 371 1071 371H840V287Z" fill="#CAFFBF"/>
<path d="M886.49 319.768C883.184 319.768 879.82 320.754 877.326 325.452C875.47 320.87 871.932 319.768 869.032 319.768C866.422 319.768 863.406 320.696 861.492 324.118V320.406H853.082L853.14 349H861.898V339.778C861.898 334.384 860.68 327.366 866.712 327.366C870.946 327.366 870.54 332.412 870.54 333.108V349H879.24V339.778C879.24 334.384 877.964 327.366 883.822 327.366C887.418 327.366 887.882 331.136 887.882 333.282V349H896.64V330.556C896.64 325.394 893.392 319.768 886.49 319.768ZM918.895 320.406V329.86C918.895 336.646 918.895 342.04 913.617 342.04C909.383 342.04 908.977 339.082 908.977 336.298V320.406H900.219V338.096C900.219 344.824 903.351 349.638 910.949 349.638C914.023 349.638 916.807 348.652 918.895 346.216V349H927.653V320.406H918.895ZM942.227 349.638C947.563 349.638 953.885 346.738 953.885 339.546C953.885 328.758 939.849 331.6 939.849 327.83C939.849 326.902 940.661 326.206 942.285 326.206C945.127 326.206 946.287 328.526 946.983 329.802L953.711 326.09C951.449 322.32 947.679 319.768 942.401 319.768C937.239 319.768 931.613 322.262 931.613 328.7C931.613 338.792 945.301 336.82 945.301 340.764C945.301 341.634 944.605 342.678 942.169 342.678C938.283 342.678 937.529 339.836 936.949 338.27L930.047 341.344C931.381 345.52 935.905 349.638 942.227 349.638ZM956.878 316.462H965.81V308.574H956.878V316.462ZM956.936 349H965.694V320.406H956.936V349ZM982.903 349.638C988.877 349.638 993.401 346.274 995.315 340.88L987.427 337.806C986.905 340.358 985.049 342.04 982.787 342.04C978.669 342.04 977.451 338.444 977.451 334.79C977.451 331.078 978.785 327.366 982.845 327.366C985.165 327.366 986.963 329.106 987.369 331.774L995.605 328.468C993.459 322.61 988.877 319.768 982.845 319.768C973.101 319.768 968.461 327.25 968.461 334.79C968.461 342.098 972.927 349.638 982.903 349.638ZM997.775 316.462H1006.71V308.574H997.775V316.462ZM997.833 349H1006.59V320.406H997.833V349ZM1023.57 319.768C1018.58 319.768 1013.3 321.392 1009.71 325.162L1016.03 330.44C1018.58 328.004 1020.78 327.366 1022.93 327.366C1026.12 327.366 1027.86 328.816 1027.86 330.846V331.31H1019.97C1017.42 331.31 1015.16 331.774 1013.36 332.76C1010.92 334.094 1009.42 336.472 1009.42 339.778C1009.42 345.636 1014.06 349.638 1020.49 349.638C1022.58 349.638 1025.66 349.232 1027.98 346.158L1028.56 349H1036.56V330.846C1036.56 324.06 1031.69 319.768 1023.57 319.768ZM1021.89 342.62C1019.39 342.62 1018.17 341.402 1018.17 339.952C1018.17 339.256 1018.46 338.676 1019.04 338.27C1019.57 337.922 1020.32 337.748 1021.25 337.748H1027.86C1027.69 340.59 1025.02 342.62 1021.89 342.62ZM1057.99 319.768C1054.97 319.768 1052.01 320.464 1049.87 323.074V320.406H1041.11V349H1049.87V335.66C1049.87 332.528 1049.87 327.366 1055.26 327.366C1059.78 327.366 1059.78 331.02 1059.78 333.224V349H1068.54V329.976C1068.54 323.712 1064.6 319.768 1057.99 319.768Z" fill="#444444"/>
<path d="M173.351 187.352V170.036H154.703V142.804L132.503 159.232V170.036H120.811V187.352H132.503V219.764C132.503 238.412 144.787 244.628 158.551 244.628C163.731 244.628 168.467 243.888 173.203 242.26L173.351 224.944C170.095 225.98 166.839 226.572 163.879 226.572C154.703 226.572 154.703 220.504 154.703 217.692V187.352H173.351ZM181.175 159.972H203.967V139.844H181.175V159.972ZM181.323 243H203.671V170.036H181.323V243ZM301.009 168.408C292.573 168.408 283.989 170.924 277.625 182.912C272.889 171.22 263.861 168.408 256.461 168.408C249.801 168.408 242.105 170.776 237.221 179.508V170.036H215.761L215.909 243H238.257V219.468C238.257 205.704 235.149 187.796 250.541 187.796C261.345 187.796 260.309 200.672 260.309 202.448V243H282.509V219.468C282.509 205.704 279.253 187.796 294.201 187.796C303.377 187.796 304.561 197.416 304.561 202.892V243H326.909V195.936C326.909 182.764 318.621 168.408 301.009 168.408ZM367.996 244.628C391.38 244.628 405.44 226.424 405.44 206.444C405.44 186.316 391.528 168.408 367.996 168.408C344.168 168.408 330.404 186.464 330.404 206.444C330.404 226.424 344.316 244.628 367.996 244.628ZM367.996 225.24C355.712 225.24 352.752 215.324 352.752 206.444C352.752 197.12 355.86 187.796 367.996 187.796C380.132 187.796 383.092 197.268 383.092 206.444C383.092 215.62 379.984 225.24 367.996 225.24ZM454.626 187.352V170.036H435.978V142.804L413.778 159.232V170.036H402.086V187.352H413.778V219.764C413.778 238.412 426.062 244.628 439.826 244.628C445.006 244.628 449.742 243.888 454.478 242.26L454.626 224.944C451.37 225.98 448.114 226.572 445.154 226.572C435.978 226.572 435.978 220.504 435.978 217.692V187.352H454.626ZM502.2 168.408C493.024 168.408 486.364 171.072 481.48 176.844V139.844H459.132V243H481.48V216.508C481.48 198.008 483.256 187.796 494.948 187.796C502.94 187.796 506.788 191.792 506.788 200.08V243H529.136V194.456C529.136 178.176 518.924 168.408 502.2 168.408ZM541.037 273.192H565.161L607.489 170.036H583.069L566.493 215.028L551.989 170.036H527.421L554.505 240.484L541.037 273.192ZM725.162 168.408C716.726 168.408 708.142 170.924 701.778 182.912C697.042 171.22 688.014 168.408 680.614 168.408C673.954 168.408 666.258 170.776 661.374 179.508V170.036H639.914L640.062 243H662.41V219.468C662.41 205.704 659.302 187.796 674.694 187.796C685.498 187.796 684.462 200.672 684.462 202.448V243H706.662V219.468C706.662 205.704 703.406 187.796 718.354 187.796C727.53 187.796 728.714 197.416 728.714 202.892V243H751.062V195.936C751.062 182.764 742.774 168.408 725.162 168.408ZM825.745 207.184C825.745 184.688 813.757 168.408 790.965 168.408C764.917 168.408 755.001 188.684 755.001 206.888C755.001 225.684 765.213 244.628 792.149 244.628C805.025 244.628 815.385 239.744 823.081 231.012L807.689 217.396C803.545 222.428 797.773 224.5 792.297 224.5C782.677 224.5 778.237 220.06 777.349 214.288H825.301C825.597 211.18 825.745 209.256 825.745 207.184ZM777.053 197.86C777.941 193.124 781.345 186.908 790.669 186.908C798.069 186.908 804.137 191.052 804.433 197.86H777.053ZM804.137 200.672L804.285 200.524L804.137 200.672ZM872.636 168.408C864.792 168.408 857.688 173.44 854.284 181.136V170.036H831.788V243H854.136V209.108C854.136 196.232 859.316 190.608 867.16 190.608C870.712 190.608 874.56 191.94 876.632 193.272L887.288 173.144C882.108 169.74 877.668 168.408 872.636 168.408ZM928.899 168.408C921.055 168.408 913.951 173.44 910.547 181.136V170.036H888.051V243H910.399V209.108C910.399 196.232 915.579 190.608 923.423 190.608C926.975 190.608 930.823 191.94 932.895 193.272L943.551 173.144C938.371 169.74 933.931 168.408 928.899 168.408ZM944.166 159.972H966.958V139.844H944.166V159.972ZM944.314 243H966.662V170.036H944.314V243ZM1022.71 187.352V170.036H1004.06V142.804L981.861 159.232V170.036H970.169V187.352H981.861V219.764C981.861 238.412 994.145 244.628 1007.91 244.628C1013.09 244.628 1017.83 243.888 1022.56 242.26L1022.71 224.944C1019.45 225.98 1016.2 226.572 1013.24 226.572C1004.06 226.572 1004.06 220.504 1004.06 217.692V187.352H1022.71ZM1074.2 187.352V170.036H1055.56V142.804L1033.36 159.232V170.036H1021.66V187.352H1033.36V219.764C1033.36 238.412 1045.64 244.628 1059.4 244.628C1064.58 244.628 1069.32 243.888 1074.06 242.26L1074.2 224.944C1070.95 225.98 1067.69 226.572 1064.73 226.572C1055.56 226.572 1055.56 220.504 1055.56 217.692V187.352H1074.2Z" fill="#444444"/>
</svg>
