<svg width="1200" height="647" viewBox="0 0 1200 647" fill="none" xmlns="http://www.w3.org/2000/svg">
<rect width="1200" height="647" fill="white"/>
<rect y="323" width="1200" height="324" fill="#444444"/>
<path d="M169.631 472.608V455.994H151.739V429.866L130.439 445.628V455.994H119.221V472.608H130.439V503.706C130.439 521.598 142.225 527.562 155.431 527.562C160.401 527.562 164.945 526.852 169.489 525.29L169.631 508.676C166.507 509.67 163.383 510.238 160.543 510.238C151.739 510.238 151.739 504.416 151.739 501.718V472.608H169.631ZM175.007 446.338H196.875V427.026H175.007V446.338ZM175.149 526H196.591V455.994H175.149V526ZM287.854 454.432C279.76 454.432 271.523 456.846 265.418 468.348C260.874 457.13 252.211 454.432 245.112 454.432C238.721 454.432 231.337 456.704 226.651 465.082V455.994H206.061L206.203 526H227.645V503.422C227.645 490.216 224.663 473.034 239.431 473.034C249.798 473.034 248.804 485.388 248.804 487.092V526H270.104V503.422C270.104 490.216 266.979 473.034 281.322 473.034C290.125 473.034 291.261 482.264 291.261 487.518V526H312.704V480.844C312.704 468.206 304.752 454.432 287.854 454.432ZM402.108 454.432C394.014 454.432 385.778 456.846 379.672 468.348C375.128 457.13 366.466 454.432 359.366 454.432C352.976 454.432 345.592 456.704 340.906 465.082V455.994H320.316L320.458 526H341.9V503.422C341.9 490.216 338.918 473.034 353.686 473.034C364.052 473.034 363.058 485.388 363.058 487.092V526H384.358V503.422C384.358 490.216 381.234 473.034 395.576 473.034C404.38 473.034 405.516 482.264 405.516 487.518V526H426.958V480.844C426.958 468.206 419.006 454.432 402.108 454.432ZM435.879 554.968H459.025L499.637 455.994H476.207L460.303 499.162L446.387 455.994H422.815L448.801 523.586L435.879 554.968ZM538.677 454.432C531.435 454.432 524.193 457.272 519.933 461.532V427.026H498.491V526H519.933V520.746C524.761 525.716 532.145 527.562 538.251 527.562C556.427 527.562 566.793 511.942 566.793 490.926C566.793 467.496 554.013 454.432 538.677 454.432ZM532.571 507.54C521.637 507.54 517.945 500.156 517.945 491.21C517.945 482.548 521.211 474.028 532.287 474.028C541.943 474.028 545.493 480.276 545.493 491.21C545.493 502.286 541.659 507.54 532.571 507.54ZM570.229 554.968H593.375L633.987 455.994H610.557L594.653 499.162L580.737 455.994H557.165L583.151 523.586L570.229 554.968ZM676.815 472.608V455.994H658.923V429.866L637.623 445.628V455.994H626.405V472.608H637.623V503.706C637.623 521.598 649.409 527.562 662.615 527.562C667.585 527.562 672.129 526.852 676.673 525.29L676.815 508.676C673.691 509.67 670.567 510.238 667.727 510.238C658.923 510.238 658.923 504.416 658.923 501.718V472.608H676.815ZM743.552 491.636C743.552 470.052 732.05 454.432 710.181 454.432C685.19 454.432 675.676 473.886 675.676 491.352C675.676 509.386 685.474 527.562 711.318 527.562C723.672 527.562 733.612 522.876 740.996 514.498L726.228 501.434C722.252 506.262 716.714 508.25 711.46 508.25C702.23 508.25 697.97 503.99 697.118 498.452H743.126C743.41 495.47 743.552 493.624 743.552 491.636ZM696.834 482.69C697.686 478.146 700.952 472.182 709.898 472.182C716.998 472.182 722.82 476.158 723.104 482.69H696.834ZM722.82 485.388L722.962 485.246L722.82 485.388ZM769.798 527.562C782.862 527.562 798.34 520.462 798.34 502.854C798.34 476.442 763.976 483.4 763.976 474.17C763.976 471.898 765.964 470.194 769.94 470.194C776.898 470.194 779.738 475.874 781.442 478.998L797.914 469.91C792.376 460.68 783.146 454.432 770.224 454.432C757.586 454.432 743.812 460.538 743.812 476.3C743.812 501.008 777.324 496.18 777.324 505.836C777.324 507.966 775.62 510.522 769.656 510.522C760.142 510.522 758.296 503.564 756.876 499.73L739.978 507.256C743.244 517.48 754.32 527.562 769.798 527.562ZM805.244 526H825.124V505.836H805.244V526ZM866.722 527.562C881.348 527.562 892.424 519.326 897.11 506.12L877.798 498.594C876.52 504.842 871.976 508.96 866.438 508.96C856.356 508.96 853.374 500.156 853.374 491.21C853.374 482.122 856.64 473.034 866.58 473.034C872.26 473.034 876.662 477.294 877.656 483.826L897.82 475.732C892.566 461.39 881.348 454.432 866.58 454.432C842.724 454.432 831.364 472.75 831.364 491.21C831.364 509.102 842.298 527.562 866.722 527.562ZM928.711 527.562C951.147 527.562 964.637 510.096 964.637 490.926C964.637 471.614 951.289 454.432 928.711 454.432C905.849 454.432 892.643 471.756 892.643 490.926C892.643 510.096 905.991 527.562 928.711 527.562ZM928.711 508.96C916.925 508.96 914.085 499.446 914.085 490.926C914.085 481.98 917.067 473.034 928.711 473.034C940.355 473.034 943.195 482.122 943.195 490.926C943.195 499.73 940.213 508.96 928.711 508.96ZM1049.59 454.432C1041.5 454.432 1033.26 456.846 1027.16 468.348C1022.61 457.13 1013.95 454.432 1006.85 454.432C1000.46 454.432 993.079 456.704 988.393 465.082V455.994H967.803L967.945 526H989.387V503.422C989.387 490.216 986.405 473.034 1001.17 473.034C1011.54 473.034 1010.54 485.388 1010.54 487.092V526H1031.84V503.422C1031.84 490.216 1028.72 473.034 1043.06 473.034C1051.87 473.034 1053 482.264 1053 487.518V526H1074.44V480.844C1074.44 468.206 1066.49 454.432 1049.59 454.432Z" fill="#FDFDFD"/>
<rect width="1200" height="323" fill="#FDFDFD"/>
<path d="M119 297C119 291.477 123.477 287 129 287H390V371H129C123.477 371 119 366.523 119 361V297Z" fill="#FF90AD"/>
<path d="M153.895 308.574V322.726C152.097 320.928 149.197 319.768 146.355 319.768C139.917 319.768 134.697 325.104 134.697 334.674C134.697 343.258 138.931 349.638 146.355 349.638C148.849 349.638 151.865 348.884 153.895 346.854V349H162.595V308.574H153.895ZM148.733 341.46C145.543 341.46 143.455 339.314 143.455 334.79C143.455 330.382 145.427 327.772 148.791 327.772C153.373 327.772 154.707 331.31 154.707 334.79C154.707 338.444 153.199 341.46 148.733 341.46ZM193.257 334.964C193.257 326.148 188.559 319.768 179.627 319.768C169.419 319.768 165.533 327.714 165.533 334.848C165.533 342.214 169.535 349.638 180.091 349.638C185.137 349.638 189.197 347.724 192.213 344.302L186.181 338.966C184.557 340.938 182.295 341.75 180.149 341.75C176.379 341.75 174.639 340.01 174.291 337.748H193.083C193.199 336.53 193.257 335.776 193.257 334.964ZM174.175 331.31C174.523 329.454 175.857 327.018 179.511 327.018C182.411 327.018 184.789 328.642 184.905 331.31H174.175ZM184.789 332.412L184.847 332.354L184.789 332.412ZM203.514 349H210.648L222.248 320.406H212.852L207.052 337.574L201.426 320.406H191.856L203.514 349ZM247.691 334.964C247.691 326.148 242.993 319.768 234.061 319.768C223.853 319.768 219.967 327.714 219.967 334.848C219.967 342.214 223.969 349.638 234.525 349.638C239.571 349.638 243.631 347.724 246.647 344.302L240.615 338.966C238.991 340.938 236.729 341.75 234.583 341.75C230.813 341.75 229.073 340.01 228.725 337.748H247.517C247.633 336.53 247.691 335.776 247.691 334.964ZM228.609 331.31C228.957 329.454 230.291 327.018 233.945 327.018C236.845 327.018 239.223 328.642 239.339 331.31H228.609ZM239.223 332.412L239.281 332.354L239.223 332.412ZM257.774 349.638C259.05 349.638 260.79 349.406 262.588 348.71V341.866C261.892 342.04 261.196 342.098 260.732 342.098C259.63 342.098 259.05 341.924 259.05 340.59V308.574H250.292V341.75C250.292 347.26 253.598 349.638 257.774 349.638ZM277.688 349.638C286.852 349.638 292.362 342.504 292.362 334.674C292.362 326.786 286.91 319.768 277.688 319.768C268.35 319.768 262.956 326.844 262.956 334.674C262.956 342.504 268.408 349.638 277.688 349.638ZM277.688 342.04C272.874 342.04 271.714 338.154 271.714 334.674C271.714 331.02 272.932 327.366 277.688 327.366C282.444 327.366 283.604 331.078 283.604 334.674C283.604 338.27 282.386 342.04 277.688 342.04ZM311.403 319.768C308.909 319.768 305.893 320.522 303.921 322.552V320.406H295.163V360.832H303.921V346.738C305.719 348.536 308.677 349.638 311.403 349.638C317.609 349.638 323.061 344.592 323.061 334.79C323.061 326.38 319.059 319.768 311.403 319.768ZM308.967 342.04C304.617 342.04 303.109 338.734 303.109 334.674C303.109 330.614 304.443 327.424 309.083 327.424C312.563 327.424 314.361 329.744 314.361 334.674C314.361 339.662 312.563 342.04 308.967 342.04ZM352.028 334.964C352.028 326.148 347.33 319.768 338.398 319.768C328.19 319.768 324.304 327.714 324.304 334.848C324.304 342.214 328.306 349.638 338.862 349.638C343.908 349.638 347.968 347.724 350.984 344.302L344.952 338.966C343.328 340.938 341.066 341.75 338.92 341.75C335.15 341.75 333.41 340.01 333.062 337.748H351.854C351.97 336.53 352.028 335.776 352.028 334.964ZM332.946 331.31C333.294 329.454 334.628 327.018 338.282 327.018C341.182 327.018 343.56 328.642 343.676 331.31H332.946ZM343.56 332.412L343.618 332.354L343.56 332.412ZM370.984 319.768C367.91 319.768 365.126 321.74 363.792 324.756V320.406H354.976V349H363.734V335.718C363.734 330.672 365.764 328.468 368.838 328.468C370.23 328.468 371.738 328.99 372.55 329.512L376.726 321.624C374.696 320.29 372.956 319.768 370.984 319.768Z" fill="#444444"/>
<path d="M390 287H637V371H390V287Z" fill="#FFDF85"/>
<path d="M428.939 308.574V322.726C427.141 320.928 424.241 319.768 421.399 319.768C414.961 319.768 409.741 325.104 409.741 334.674C409.741 343.258 413.975 349.638 421.399 349.638C423.893 349.638 426.909 348.884 428.939 346.854V349H437.639V308.574H428.939ZM423.777 341.46C420.587 341.46 418.499 339.314 418.499 334.79C418.499 330.382 420.471 327.772 423.835 327.772C428.417 327.772 429.751 331.31 429.751 334.79C429.751 338.444 428.243 341.46 423.777 341.46ZM468.301 334.964C468.301 326.148 463.603 319.768 454.671 319.768C444.463 319.768 440.577 327.714 440.577 334.848C440.577 342.214 444.579 349.638 455.135 349.638C460.181 349.638 464.241 347.724 467.257 344.302L461.225 338.966C459.601 340.938 457.339 341.75 455.193 341.75C451.423 341.75 449.683 340.01 449.335 337.748H468.127C468.243 336.53 468.301 335.776 468.301 334.964ZM449.219 331.31C449.567 329.454 450.901 327.018 454.555 327.018C457.455 327.018 459.833 328.642 459.949 331.31H449.219ZM459.833 332.412L459.891 332.354L459.833 332.412ZM480.472 349.638C485.808 349.638 492.13 346.738 492.13 339.546C492.13 328.758 478.094 331.6 478.094 327.83C478.094 326.902 478.906 326.206 480.53 326.206C483.372 326.206 484.532 328.526 485.228 329.802L491.956 326.09C489.694 322.32 485.924 319.768 480.646 319.768C475.484 319.768 469.858 322.262 469.858 328.7C469.858 338.792 483.546 336.82 483.546 340.764C483.546 341.634 482.85 342.678 480.414 342.678C476.528 342.678 475.774 339.836 475.194 338.27L468.292 341.344C469.626 345.52 474.15 349.638 480.472 349.638ZM495.124 316.462H504.056V308.574H495.124V316.462ZM495.182 349H503.94V320.406H495.182V349ZM520.742 344.128C517.146 343.722 514.884 343.374 514.884 341.692C514.884 341.344 514.942 341.054 515.116 340.706C516.74 341.344 518.538 341.634 520.51 341.634C527.702 341.634 532.574 337.458 532.574 331.078C532.574 329.28 532.168 327.714 531.53 326.264L535.822 322.842L531.24 317.332L526.6 321.276C524.686 320.29 522.482 319.768 520.22 319.768C513.666 319.768 507.982 324.118 507.982 330.788C507.982 333.282 508.794 335.544 510.186 337.284C508.678 338.792 507.808 340.648 507.808 343.084C507.808 346.274 509.316 348.246 511.462 349.464L507.228 351.03C507.054 351.726 506.996 352.422 506.996 352.944C506.996 358.512 512.738 362.05 521.032 362.05C528.862 362.05 534.604 358.918 534.604 352.422C534.604 346.042 529.036 345.114 520.742 344.128ZM520.336 327.018C522.598 327.018 523.874 328.526 523.874 330.788C523.874 332.934 522.888 334.79 520.336 334.79C517.726 334.79 516.74 332.934 516.74 330.788C516.74 328.584 518.016 327.018 520.336 327.018ZM521.438 355.728C517.726 355.728 515.812 354.684 515.812 353.234C515.812 353.118 515.812 352.944 515.87 352.828L517.494 351.204C518.074 351.32 518.654 351.378 519.176 351.436C522.366 351.784 525.904 351.9 525.904 353.814C525.904 354.8 524.918 355.728 521.438 355.728ZM554.429 319.768C551.413 319.768 548.455 320.464 546.309 323.074V320.406H537.551V349H546.309V335.66C546.309 332.528 546.309 327.366 551.703 327.366C556.227 327.366 556.227 331.02 556.227 333.224V349H564.985V329.976C564.985 323.712 561.041 319.768 554.429 319.768ZM594.984 334.964C594.984 326.148 590.286 319.768 581.354 319.768C571.146 319.768 567.26 327.714 567.26 334.848C567.26 342.214 571.262 349.638 581.818 349.638C586.864 349.638 590.924 347.724 593.94 344.302L587.908 338.966C586.284 340.938 584.022 341.75 581.876 341.75C578.106 341.75 576.366 340.01 576.018 337.748H594.81C594.926 336.53 594.984 335.776 594.984 334.964ZM575.902 331.31C576.25 329.454 577.584 327.018 581.238 327.018C584.138 327.018 586.516 328.642 586.632 331.31H575.902ZM586.516 332.412L586.574 332.354L586.516 332.412ZM613.94 319.768C610.866 319.768 608.082 321.74 606.748 324.756V320.406H597.932V349H606.69V335.718C606.69 330.672 608.72 328.468 611.794 328.468C613.186 328.468 614.694 328.99 615.506 329.512L619.682 321.624C617.652 320.29 615.912 319.768 613.94 319.768Z" fill="#444444"/>
<rect x="637" y="287" width="192" height="84" fill="#B8DCFF"/>
<path d="M666.768 349H674.598L678.948 332.876L683.414 349H691.128L700.234 320.406H690.896L686.72 335.428L682.602 320.406H675.236L671.118 335.544L667 320.406H657.72L666.768 349ZM717.633 319.768C714.559 319.768 711.775 321.74 710.441 324.756V320.406H701.625V349H710.383V335.718C710.383 330.672 712.413 328.468 715.487 328.468C716.879 328.468 718.387 328.99 719.199 329.512L723.375 321.624C721.345 320.29 719.605 319.768 717.633 319.768ZM724.196 316.462H733.128V308.574H724.196V316.462ZM724.254 349H733.012V320.406H724.254V349ZM755.556 327.192V320.406H748.248V309.734L739.548 316.172V320.406H734.966V327.192H739.548V339.894C739.548 347.202 744.362 349.638 749.756 349.638C751.786 349.638 753.642 349.348 755.498 348.71L755.556 341.924C754.28 342.33 753.004 342.562 751.844 342.562C748.248 342.562 748.248 340.184 748.248 339.082V327.192H755.556ZM784.265 334.964C784.265 326.148 779.567 319.768 770.635 319.768C760.427 319.768 756.541 327.714 756.541 334.848C756.541 342.214 760.543 349.638 771.099 349.638C776.145 349.638 780.205 347.724 783.221 344.302L777.189 338.966C775.565 340.938 773.303 341.75 771.157 341.75C767.387 341.75 765.647 340.01 765.299 337.748H784.091C784.207 336.53 784.265 335.776 784.265 334.964ZM765.183 331.31C765.531 329.454 766.865 327.018 770.519 327.018C773.419 327.018 775.797 328.642 775.913 331.31H765.183ZM775.797 332.412L775.855 332.354L775.797 332.412ZM803.221 319.768C800.147 319.768 797.363 321.74 796.029 324.756V320.406H787.213V349H795.971V335.718C795.971 330.672 798.001 328.468 801.075 328.468C802.467 328.468 803.975 328.99 804.787 329.512L808.963 321.624C806.933 320.29 805.193 319.768 803.221 319.768Z" fill="#444444"/>
<path d="M829 287H1071C1076.52 287 1081 291.477 1081 297V361C1081 366.523 1076.52 371 1071 371H829V287Z" fill="#CAFFBF"/>
<path d="M880.99 319.768C877.684 319.768 874.32 320.754 871.826 325.452C869.97 320.87 866.432 319.768 863.532 319.768C860.922 319.768 857.906 320.696 855.992 324.118V320.406H847.582L847.64 349H856.398V339.778C856.398 334.384 855.18 327.366 861.212 327.366C865.446 327.366 865.04 332.412 865.04 333.108V349H873.74V339.778C873.74 334.384 872.464 327.366 878.322 327.366C881.918 327.366 882.382 331.136 882.382 333.282V349H891.14V330.556C891.14 325.394 887.892 319.768 880.99 319.768ZM913.395 320.406V329.86C913.395 336.646 913.395 342.04 908.117 342.04C903.883 342.04 903.477 339.082 903.477 336.298V320.406H894.719V338.096C894.719 344.824 897.851 349.638 905.449 349.638C908.523 349.638 911.307 348.652 913.395 346.216V349H922.153V320.406H913.395ZM936.727 349.638C942.063 349.638 948.385 346.738 948.385 339.546C948.385 328.758 934.349 331.6 934.349 327.83C934.349 326.902 935.161 326.206 936.785 326.206C939.627 326.206 940.787 328.526 941.483 329.802L948.211 326.09C945.949 322.32 942.179 319.768 936.901 319.768C931.739 319.768 926.113 322.262 926.113 328.7C926.113 338.792 939.801 336.82 939.801 340.764C939.801 341.634 939.105 342.678 936.669 342.678C932.783 342.678 932.029 339.836 931.449 338.27L924.547 341.344C925.881 345.52 930.405 349.638 936.727 349.638ZM951.378 316.462H960.31V308.574H951.378V316.462ZM951.436 349H960.194V320.406H951.436V349ZM977.403 349.638C983.377 349.638 987.901 346.274 989.815 340.88L981.927 337.806C981.405 340.358 979.549 342.04 977.287 342.04C973.169 342.04 971.951 338.444 971.951 334.79C971.951 331.078 973.285 327.366 977.345 327.366C979.665 327.366 981.463 329.106 981.869 331.774L990.105 328.468C987.959 322.61 983.377 319.768 977.345 319.768C967.601 319.768 962.961 327.25 962.961 334.79C962.961 342.098 967.427 349.638 977.403 349.638ZM992.275 316.462H1001.21V308.574H992.275V316.462ZM992.333 349H1001.09V320.406H992.333V349ZM1018.07 319.768C1013.08 319.768 1007.8 321.392 1004.21 325.162L1010.53 330.44C1013.08 328.004 1015.28 327.366 1017.43 327.366C1020.62 327.366 1022.36 328.816 1022.36 330.846V331.31H1014.47C1011.92 331.31 1009.66 331.774 1007.86 332.76C1005.42 334.094 1003.92 336.472 1003.92 339.778C1003.92 345.636 1008.56 349.638 1014.99 349.638C1017.08 349.638 1020.16 349.232 1022.48 346.158L1023.06 349H1031.06V330.846C1031.06 324.06 1026.19 319.768 1018.07 319.768ZM1016.39 342.62C1013.89 342.62 1012.67 341.402 1012.67 339.952C1012.67 339.256 1012.96 338.676 1013.54 338.27C1014.07 337.922 1014.82 337.748 1015.75 337.748H1022.36C1022.19 340.59 1019.52 342.62 1016.39 342.62ZM1052.49 319.768C1049.47 319.768 1046.51 320.464 1044.37 323.074V320.406H1035.61V349H1044.37V335.66C1044.37 332.528 1044.37 327.366 1049.76 327.366C1054.28 327.366 1054.28 331.02 1054.28 333.224V349H1063.04V329.976C1063.04 323.712 1059.1 319.768 1052.49 319.768Z" fill="#444444"/>
<path d="M175.519 165.472V147.571H156.241V119.419L133.291 136.402V147.571H121.204V165.472H133.291V198.979C133.291 218.257 145.99 224.683 160.219 224.683C165.574 224.683 170.47 223.918 175.366 222.235L175.519 204.334C172.153 205.405 168.787 206.017 165.727 206.017C156.241 206.017 156.241 199.744 156.241 196.837V165.472H175.519ZM181.312 137.167H204.874V116.359H181.312V137.167ZM181.465 223H204.568V147.571H181.465V223ZM302.9 145.888C294.179 145.888 285.305 148.489 278.726 160.882C273.83 148.795 264.497 145.888 256.847 145.888C249.962 145.888 242.006 148.336 236.957 157.363V147.571H214.772L214.925 223H238.028V198.673C238.028 184.444 234.815 165.931 250.727 165.931C261.896 165.931 260.825 179.242 260.825 181.078V223H283.775V198.673C283.775 184.444 280.409 165.931 295.862 165.931C305.348 165.931 306.572 175.876 306.572 181.537V223H329.675V174.346C329.675 160.729 321.107 145.888 302.9 145.888ZM369.855 224.683C394.029 224.683 408.564 205.864 408.564 185.209C408.564 164.401 394.182 145.888 369.855 145.888C345.222 145.888 330.993 164.554 330.993 185.209C330.993 205.864 345.375 224.683 369.855 224.683ZM369.855 204.64C357.156 204.64 354.096 194.389 354.096 185.209C354.096 175.57 357.309 165.931 369.855 165.931C382.401 165.931 385.461 175.723 385.461 185.209C385.461 194.695 382.248 204.64 369.855 204.64ZM457.117 165.472V147.571H437.839V119.419L414.889 136.402V147.571H402.802V165.472H414.889V198.979C414.889 218.257 427.588 224.683 441.817 224.683C447.172 224.683 452.068 223.918 456.964 222.235L457.117 204.334C453.751 205.405 450.385 206.017 447.325 206.017C437.839 206.017 437.839 199.744 437.839 196.837V165.472H457.117ZM504.003 145.888C494.517 145.888 487.632 148.642 482.583 154.609V116.359H459.48V223H482.583V195.613C482.583 176.488 484.419 165.931 496.506 165.931C504.768 165.931 508.746 170.062 508.746 178.63V223H531.849V172.816C531.849 155.986 521.292 145.888 504.003 145.888ZM541.856 254.212H566.795L610.553 147.571H585.308L568.172 194.083L553.178 147.571H527.78L555.779 220.399L541.856 254.212ZM727.613 145.888C718.892 145.888 710.018 148.489 703.439 160.882C698.543 148.795 689.21 145.888 681.56 145.888C674.675 145.888 666.719 148.336 661.67 157.363V147.571H639.485L639.638 223H662.741V198.673C662.741 184.444 659.528 165.931 675.44 165.931C686.609 165.931 685.538 179.242 685.538 181.078V223H708.488V198.673C708.488 184.444 705.122 165.931 720.575 165.931C730.061 165.931 731.285 175.876 731.285 181.537V223H754.388V174.346C754.388 160.729 745.82 145.888 727.613 145.888ZM829.298 185.974C829.298 162.718 816.905 145.888 793.343 145.888C766.415 145.888 756.164 166.849 756.164 185.668C756.164 205.099 766.721 224.683 794.567 224.683C807.878 224.683 818.588 219.634 826.544 210.607L810.632 196.531C806.348 201.733 800.381 203.875 794.72 203.875C784.775 203.875 780.185 199.285 779.267 193.318H828.839C829.145 190.105 829.298 188.116 829.298 185.974ZM778.961 176.335C779.879 171.439 783.398 165.013 793.037 165.013C800.687 165.013 806.96 169.297 807.266 176.335H778.961ZM806.96 179.242L807.113 179.089L806.96 179.242ZM875.479 145.888C867.37 145.888 860.026 151.09 856.507 159.046V147.571H833.251V223H856.354V187.963C856.354 174.652 861.709 168.838 869.818 168.838C873.49 168.838 877.468 170.215 879.61 171.592L890.626 150.784C885.271 147.265 880.681 145.888 875.479 145.888ZM931.348 145.888C923.239 145.888 915.895 151.09 912.376 159.046V147.571H889.12V223H912.223V187.963C912.223 174.652 917.578 168.838 925.687 168.838C929.359 168.838 933.337 170.215 935.479 171.592L946.495 150.784C941.14 147.265 936.55 145.888 931.348 145.888ZM944.836 137.167H968.398V116.359H944.836V137.167ZM944.989 223H968.092V147.571H944.989V223ZM1023.74 165.472V147.571H1004.46V119.419L981.509 136.402V147.571H969.422V165.472H981.509V198.979C981.509 218.257 994.208 224.683 1008.44 224.683C1013.79 224.683 1018.69 223.918 1023.58 222.235L1023.74 204.334C1020.37 205.405 1017.01 206.017 1013.95 206.017C1004.46 206.017 1004.46 199.744 1004.46 196.837V165.472H1023.74ZM1074.68 165.472V147.571H1055.4V119.419L1032.45 136.402V147.571H1020.36V165.472H1032.45V198.979C1032.45 218.257 1045.15 224.683 1059.38 224.683C1064.73 224.683 1069.63 223.918 1074.52 222.235L1074.68 204.334C1071.31 205.405 1067.94 206.017 1064.88 206.017C1055.4 206.017 1055.4 199.744 1055.4 196.837V165.472H1074.68Z" fill="#444444"/>
</svg>
