<svg width="1363" height="303" viewBox="0 0 1363 303" fill="none" xmlns="http://www.w3.org/2000/svg">
<path d="M116.481 130V100.75H84.9814V54.75L47.4814 82.5V100.75H27.7314V130H47.4814V184.75C47.4814 216.25 68.2314 226.75 91.4815 226.75C100.231 226.75 108.231 225.5 116.231 222.75L116.481 193.5C110.981 195.25 105.481 196.25 100.481 196.25C84.9814 196.25 84.9814 186 84.9814 181.25V130H116.481ZM137.196 83.75H175.696V49.75H137.196V83.75ZM137.446 224H175.196V100.75H137.446V224ZM347.12 98C332.87 98 318.37 102.25 307.62 122.5C299.62 102.75 284.37 98 271.87 98C260.62 98 247.62 102 239.37 116.75V100.75H203.12L203.37 224H241.12V184.25C241.12 161 235.87 130.75 261.87 130.75C280.12 130.75 278.37 152.5 278.37 155.5V224H315.87V184.25C315.87 161 310.37 130.75 335.62 130.75C351.12 130.75 353.12 147 353.12 156.25V224H390.87V144.5C390.87 122.25 376.87 98 347.12 98ZM559.522 98C545.272 98 530.772 102.25 520.022 122.5C512.022 102.75 496.772 98 484.272 98C473.022 98 460.022 102 451.772 116.75V100.75H415.522L415.772 224H453.522V184.25C453.522 161 448.272 130.75 474.272 130.75C492.522 130.75 490.772 152.5 490.772 155.5V224H528.272V184.25C528.272 161 522.772 130.75 548.022 130.75C563.522 130.75 565.522 147 565.522 156.25V224H603.272V144.5C603.272 122.25 589.272 98 559.522 98ZM630.228 275H670.978L742.478 100.75H701.228L673.228 176.75L648.728 100.75H607.228L652.978 219.75L630.228 275ZM822.46 98C809.71 98 796.96 103 789.46 110.5V49.75H751.71V224H789.46V214.75C797.96 223.5 810.96 226.75 821.71 226.75C853.71 226.75 871.96 199.25 871.96 162.25C871.96 121 849.46 98 822.46 98ZM811.71 191.5C792.46 191.5 785.96 178.5 785.96 162.75C785.96 147.5 791.71 132.5 811.21 132.5C828.21 132.5 834.46 143.5 834.46 162.75C834.46 182.25 827.71 191.5 811.71 191.5ZM889.261 275H930.011L1001.51 100.75H960.261L932.261 176.75L907.761 100.75H866.261L912.011 219.75L889.261 275ZM1088.16 130V100.75H1056.66V54.75L1019.16 82.5V100.75H999.411V130H1019.16V184.75C1019.16 216.25 1039.91 226.75 1063.16 226.75C1071.91 226.75 1079.91 225.5 1087.91 222.75L1088.16 193.5C1082.66 195.25 1077.16 196.25 1072.16 196.25C1056.66 196.25 1056.66 186 1056.66 181.25V130H1088.16ZM1216.91 163.5C1216.91 125.5 1196.66 98 1158.16 98C1114.16 98 1097.41 132.25 1097.41 163C1097.41 194.75 1114.66 226.75 1160.16 226.75C1181.91 226.75 1199.41 218.5 1212.41 203.75L1186.41 180.75C1179.41 189.25 1169.66 192.75 1160.41 192.75C1144.16 192.75 1136.66 185.25 1135.16 175.5H1216.16C1216.66 170.25 1216.91 167 1216.91 163.5ZM1134.66 147.75C1136.16 139.75 1141.91 129.25 1157.66 129.25C1170.16 129.25 1180.41 136.25 1180.91 147.75H1134.66ZM1180.41 152.5L1180.66 152.25L1180.41 152.5ZM1274.36 226.75C1297.36 226.75 1324.61 214.25 1324.61 183.25C1324.61 136.75 1264.11 149 1264.11 132.75C1264.11 128.75 1267.61 125.75 1274.61 125.75C1286.86 125.75 1291.86 135.75 1294.86 141.25L1323.86 125.25C1314.11 109 1297.86 98 1275.11 98C1252.86 98 1228.61 108.75 1228.61 136.5C1228.61 180 1287.61 171.5 1287.61 188.5C1287.61 192.25 1284.61 196.75 1274.11 196.75C1257.36 196.75 1254.11 184.5 1251.61 177.75L1221.86 191C1227.61 209 1247.11 226.75 1274.36 226.75Z" fill="#444444"/>
<path d="M116.481 130V157.5H143.981V130H116.481ZM116.481 100.75H143.981V73.25H116.481V100.75ZM84.9814 100.75H57.4814V128.25H84.9814V100.75ZM84.9814 54.75H112.481V0.189282L68.6233 32.6443L84.9814 54.75ZM47.4814 82.5L31.1233 60.3943L19.9814 68.6393V82.5H47.4814ZM47.4814 100.75V128.25H74.9814V100.75H47.4814ZM27.7314 100.75V73.25H0.231445V100.75H27.7314ZM27.7314 130H0.231445V157.5H27.7314V130ZM47.4814 130H74.9814V102.5H47.4814V130ZM116.231 222.75L125.171 248.756L143.564 242.434L143.73 222.985L116.231 222.75ZM116.481 193.5L143.98 193.735L144.305 155.789L108.143 167.295L116.481 193.5ZM84.9814 130V102.5H57.4814V130H84.9814ZM143.981 130V100.75H88.9814V130H143.981ZM116.481 73.25H84.9814V128.25H116.481V73.25ZM112.481 100.75V54.75H57.4814V100.75H112.481ZM68.6233 32.6443L31.1233 60.3943L63.8396 104.606L101.34 76.8556L68.6233 32.6443ZM19.9814 82.5V100.75H74.9814V82.5H19.9814ZM47.4814 73.25H27.7314V128.25H47.4814V73.25ZM0.231445 100.75V130H55.2314V100.75H0.231445ZM27.7314 157.5H47.4814V102.5H27.7314V157.5ZM19.9814 130V184.75H74.9814V130H19.9814ZM19.9814 184.75C19.9814 207.024 27.6521 226.12 43.4431 238.923C58.2113 250.897 76.2961 254.25 91.4814 254.25V199.25C83.4168 199.25 79.5016 197.353 78.0823 196.202C77.5148 195.742 76.9335 195.106 76.3832 193.815C75.7816 192.404 74.9814 189.622 74.9814 184.75H19.9814ZM91.4814 254.25C103.023 254.25 114.067 252.573 125.171 248.756L107.292 196.744C102.396 198.427 97.4395 199.25 91.4814 199.25V254.25ZM143.73 222.985L143.98 193.735L88.9825 193.265L88.7325 222.515L143.73 222.985ZM108.143 167.295C104.64 168.409 102.001 168.75 100.481 168.75V223.75C108.961 223.75 117.323 222.091 124.82 219.705L108.143 167.295ZM100.481 168.75C99.531 168.75 100.892 168.581 103.318 169.733C106.056 171.034 108.602 173.287 110.355 176.144C111.916 178.687 112.317 180.827 112.425 181.553C112.519 182.188 112.481 182.548 112.481 181.25H57.4814C57.4814 182.754 56.9243 194.235 63.4824 204.918C71.8002 218.468 86.1406 223.75 100.481 223.75V168.75ZM112.481 181.25V130H57.4814V181.25H112.481ZM84.9814 157.5H116.481V102.5H84.9814V157.5ZM137.196 83.75H109.696V111.25H137.196V83.75ZM175.696 83.75V111.25H203.196V83.75H175.696ZM175.696 49.75H203.196V22.25H175.696V49.75ZM137.196 49.75V22.25H109.696V49.75H137.196ZM137.446 224H109.946V251.5H137.446V224ZM175.196 224V251.5H202.696V224H175.196ZM175.196 100.75H202.696V73.25H175.196V100.75ZM137.446 100.75V73.25H109.946V100.75H137.446ZM137.196 111.25H175.696V56.25H137.196V111.25ZM203.196 83.75V49.75H148.196V83.75H203.196ZM175.696 22.25H137.196V77.25H175.696V22.25ZM109.696 49.75V83.75H164.696V49.75H109.696ZM137.446 251.5H175.196V196.5H137.446V251.5ZM202.696 224V100.75H147.696V224H202.696ZM175.196 73.25H137.446V128.25H175.196V73.25ZM109.946 100.75V224H164.946V100.75H109.946ZM307.62 122.5L282.132 132.824L304.266 187.468L331.91 135.394L307.62 122.5ZM239.37 116.75H211.87V222.251L263.371 130.174L239.37 116.75ZM239.37 100.75H266.87V73.25H239.37V100.75ZM203.12 100.75V73.25H175.564L175.62 100.806L203.12 100.75ZM203.37 224L175.87 224.056L175.926 251.5H203.37V224ZM241.12 224V251.5H268.62V224H241.12ZM278.37 224H250.87V251.5H278.37V224ZM315.87 224V251.5H343.37V224H315.87ZM353.12 224H325.62V251.5H353.12V224ZM390.87 224V251.5H418.37V224H390.87ZM347.12 70.5C337.336 70.5 325.225 71.9451 313.134 78.3822C300.784 84.9576 290.838 95.463 283.331 109.606L331.91 135.394C335.152 129.287 337.832 127.542 338.981 126.93C340.391 126.18 342.654 125.5 347.12 125.5V70.5ZM333.108 112.176C326.961 96.9995 317.194 85.9165 305.114 78.9887C293.454 72.3011 281.438 70.5 271.87 70.5V125.5C274.803 125.5 276.661 126.074 277.751 126.699C278.422 127.083 280.279 128.25 282.132 132.824L333.108 112.176ZM271.87 70.5C253.659 70.5 229.786 77.5501 215.369 103.326L263.371 130.174C264.843 127.542 266.11 126.782 266.793 126.44C267.774 125.95 269.396 125.5 271.87 125.5V70.5ZM266.87 116.75V100.75H211.87V116.75H266.87ZM239.37 73.25H203.12V128.25H239.37V73.25ZM175.62 100.806L175.87 224.056L230.87 223.944L230.62 100.694L175.62 100.806ZM203.37 251.5H241.12V196.5H203.37V251.5ZM268.62 224V184.25H213.62V224H268.62ZM268.62 184.25C268.62 180.884 268.525 177.496 268.433 174.44C268.336 171.258 268.242 168.463 268.203 165.695C268.123 159.973 268.331 156.244 268.786 153.786C269.262 151.213 269.514 152.85 267.212 155.178C264.166 158.257 261.086 158.25 261.87 158.25V103.25C249.654 103.25 237.48 107.025 228.107 116.502C219.476 125.228 216.166 135.881 214.704 143.777C213.222 151.788 213.117 159.98 213.209 166.469C213.325 174.722 213.62 178.002 213.62 184.25H268.62ZM261.87 158.25C261.396 158.25 260.225 158.174 258.652 157.618C257.041 157.048 255.474 156.138 254.118 154.96C251.5 152.687 250.795 150.454 250.751 150.315C250.698 150.146 250.836 150.578 250.892 151.719C250.915 152.201 250.919 152.689 250.912 153.195C250.909 153.455 250.903 153.697 250.894 154.018C250.891 154.169 250.87 154.868 250.87 155.5H305.87C305.87 156.351 306.648 144.629 303.177 133.685C301.289 127.733 297.599 119.875 290.177 113.431C282.263 106.558 272.349 103.25 261.87 103.25V158.25ZM250.87 155.5V224H305.87V155.5H250.87ZM278.37 251.5H315.87V196.5H278.37V251.5ZM343.37 224V184.25H288.37V224H343.37ZM343.37 184.25C343.37 178.4 342.988 169.98 342.9 165.537C342.785 159.753 342.952 155.947 343.387 153.394C343.851 150.667 344.148 152.326 341.832 154.767C338.67 158.1 335.256 158.25 335.62 158.25V103.25C323.36 103.25 311.164 107.181 301.932 116.913C293.545 125.752 290.483 136.427 289.166 144.168C287.819 152.085 287.783 160.2 287.911 166.627C288.065 174.395 288.37 178.475 288.37 184.25H343.37ZM335.62 158.25C334.409 158.25 331.779 157.834 329.054 155.914C326.569 154.163 325.531 152.236 325.266 151.669C325.039 151.183 325.204 151.352 325.378 152.5C325.54 153.563 325.62 154.86 325.62 156.25H380.62C380.62 150.522 380.147 139.202 375.099 128.394C372.396 122.608 367.953 116.04 360.733 110.954C353.274 105.697 344.581 103.25 335.62 103.25V158.25ZM325.62 156.25V224H380.62V156.25H325.62ZM353.12 251.5H390.87V196.5H353.12V251.5ZM418.37 224V144.5H363.37V224H418.37ZM418.37 144.5C418.37 128.022 413.262 109.982 401.455 95.5168C389.062 80.3341 370.331 70.5 347.12 70.5V125.5C353.659 125.5 356.803 127.791 358.847 130.296C361.478 133.518 363.37 138.728 363.37 144.5H418.37ZM520.022 122.5L494.534 132.824L516.668 187.468L544.312 135.394L520.022 122.5ZM451.772 116.75H424.272V222.251L475.773 130.174L451.772 116.75ZM451.772 100.75H479.272V73.25H451.772V100.75ZM415.522 100.75V73.25H387.967L388.023 100.806L415.522 100.75ZM415.772 224L388.273 224.056L388.328 251.5H415.772V224ZM453.522 224V251.5H481.022V224H453.522ZM490.772 224H463.272V251.5H490.772V224ZM528.272 224V251.5H555.772V224H528.272ZM565.522 224H538.022V251.5H565.522V224ZM603.272 224V251.5H630.772V224H603.272ZM559.522 70.5C549.738 70.5 537.627 71.9451 525.536 78.3822C513.186 84.9576 503.241 95.463 495.733 109.606L544.312 135.394C547.554 129.287 550.234 127.542 551.384 126.93C552.793 126.18 555.057 125.5 559.522 125.5V70.5ZM545.511 112.176C539.364 96.9995 529.596 85.9165 517.517 78.9887C505.856 72.3011 493.84 70.5 484.272 70.5V125.5C487.205 125.5 489.064 126.074 490.153 126.699C490.824 127.083 492.681 128.25 494.534 132.824L545.511 112.176ZM484.272 70.5C466.061 70.5 442.189 77.5501 427.772 103.326L475.773 130.174C477.245 127.542 478.513 126.782 479.196 126.44C480.177 125.95 481.798 125.5 484.272 125.5V70.5ZM479.272 116.75V100.75H424.272V116.75H479.272ZM451.772 73.25H415.522V128.25H451.772V73.25ZM388.023 100.806L388.273 224.056L443.272 223.944L443.022 100.694L388.023 100.806ZM415.772 251.5H453.522V196.5H415.772V251.5ZM481.022 224V184.25H426.022V224H481.022ZM481.022 184.25C481.022 180.884 480.928 177.496 480.835 174.44C480.738 171.258 480.645 168.463 480.606 165.695C480.525 159.973 480.733 156.244 481.188 153.786C481.664 151.213 481.916 152.85 479.614 155.178C476.569 158.257 473.488 158.25 474.272 158.25V103.25C462.057 103.25 449.882 107.025 440.509 116.502C431.879 125.228 428.568 135.881 427.107 143.777C425.624 151.788 425.52 159.98 425.611 166.469C425.727 174.722 426.022 178.002 426.022 184.25H481.022ZM474.272 158.25C473.798 158.25 472.627 158.174 471.055 157.618C469.443 157.048 467.876 156.138 466.52 154.96C463.903 152.687 463.198 150.454 463.153 150.315C463.1 150.146 463.238 150.578 463.294 151.719C463.318 152.201 463.322 152.689 463.315 153.195C463.311 153.455 463.305 153.697 463.297 154.018C463.293 154.169 463.272 154.868 463.272 155.5H518.272C518.272 156.351 519.05 144.629 515.579 133.685C513.691 127.733 510.002 119.875 502.58 113.431C494.665 106.558 484.752 103.25 474.272 103.25V158.25ZM463.272 155.5V224H518.272V155.5H463.272ZM490.772 251.5H528.272V196.5H490.772V251.5ZM555.772 224V184.25H500.772V224H555.772ZM555.772 184.25C555.772 178.4 555.39 169.98 555.302 165.537C555.188 159.753 555.355 155.947 555.789 153.394C556.253 150.667 556.551 152.326 554.234 154.767C551.072 158.1 547.658 158.25 548.022 158.25V103.25C535.762 103.25 523.567 107.181 514.334 116.913C505.948 125.752 502.886 136.427 501.568 144.168C500.221 152.085 500.186 160.2 500.313 166.627C500.467 174.395 500.772 178.475 500.772 184.25H555.772ZM548.022 158.25C546.812 158.25 544.181 157.834 541.456 155.914C538.971 154.163 537.934 152.236 537.669 151.669C537.442 151.183 537.606 151.352 537.781 152.5C537.942 153.563 538.022 154.86 538.022 156.25H593.022C593.022 150.522 592.549 139.202 587.501 128.394C584.799 122.608 580.355 116.04 573.136 110.954C565.676 105.697 556.983 103.25 548.022 103.25V158.25ZM538.022 156.25V224H593.022V156.25H538.022ZM565.522 251.5H603.272V196.5H565.522V251.5ZM630.772 224V144.5H575.772V224H630.772ZM630.772 144.5C630.772 128.022 625.665 109.982 613.858 95.5168C601.465 80.3341 582.733 70.5 559.522 70.5V125.5C566.062 125.5 569.205 127.791 571.25 130.296C573.88 133.518 575.772 138.728 575.772 144.5H630.772ZM630.228 275L604.799 264.529L589.164 302.5H630.228V275ZM670.978 275V302.5H689.419L696.419 285.439L670.978 275ZM742.478 100.75L767.919 111.189L783.487 73.25H742.478V100.75ZM701.228 100.75V73.25H682.052L675.423 91.2431L701.228 100.75ZM673.228 176.75L647.054 185.188L671.494 261.002L699.032 186.257L673.228 176.75ZM648.728 100.75L674.901 92.3124L668.756 73.25H648.728V100.75ZM607.228 100.75V73.25H567.193L581.559 110.618L607.228 100.75ZM652.978 219.75L678.406 230.221L682.574 220.099L678.646 209.882L652.978 219.75ZM630.228 302.5H670.978V247.5H630.228V302.5ZM696.419 285.439L767.919 111.189L717.036 90.3106L645.536 264.561L696.419 285.439ZM742.478 73.25H701.228V128.25H742.478V73.25ZM675.423 91.2431L647.423 167.243L699.032 186.257L727.032 110.257L675.423 91.2431ZM699.401 168.312L674.901 92.3124L622.554 109.188L647.054 185.188L699.401 168.312ZM648.728 73.25H607.228V128.25H648.728V73.25ZM581.559 110.618L627.309 229.618L678.646 209.882L632.896 90.8817L581.559 110.618ZM627.549 209.279L604.799 264.529L655.656 285.471L678.406 230.221L627.549 209.279ZM789.46 110.5H761.96V176.891L808.905 129.945L789.46 110.5ZM789.46 49.75H816.96V22.25H789.46V49.75ZM751.71 49.75V22.25H724.21V49.75H751.71ZM751.71 224H724.21V251.5H751.71V224ZM789.46 224V251.5H816.96V224H789.46ZM789.46 214.75L809.185 195.588L761.96 146.974V214.75H789.46ZM822.46 70.5C803.538 70.5 783.414 77.655 770.015 91.0546L808.905 129.945C810.506 128.345 815.882 125.5 822.46 125.5V70.5ZM816.96 110.5V49.75H761.96V110.5H816.96ZM789.46 22.25H751.71V77.25H789.46V22.25ZM724.21 49.75V224H779.21V49.75H724.21ZM751.71 251.5H789.46V196.5H751.71V251.5ZM816.96 224V214.75H761.96V224H816.96ZM769.735 233.912C785.304 249.939 806.77 254.25 821.71 254.25V199.25C818.955 199.25 816.023 198.814 813.524 197.971C811.03 197.131 809.74 196.159 809.185 195.588L769.735 233.912ZM821.71 254.25C846.595 254.25 867.258 243.11 880.892 224.798C893.919 207.302 899.46 184.892 899.46 162.25H844.46C844.46 176.608 840.876 186.448 836.778 191.952C833.287 196.64 828.825 199.25 821.71 199.25V254.25ZM899.46 162.25C899.46 136.751 892.481 114.04 878.545 97.153C864.383 79.9904 844.263 70.5 822.46 70.5V125.5C827.657 125.5 832.287 127.51 836.124 132.16C840.189 137.085 844.46 146.499 844.46 162.25H899.46ZM811.71 164C809.978 164 809.869 163.711 810.676 164.067C811.073 164.243 811.575 164.525 812.101 164.939C812.626 165.351 813.055 165.8 813.379 166.22C814.022 167.053 814.022 167.457 813.858 166.841C813.687 166.195 813.46 164.874 813.46 162.75H758.46C758.46 173.733 760.621 187.891 769.853 199.842C780.064 213.061 795.294 219 811.71 219V164ZM813.46 162.75C813.46 160.59 813.671 158.988 813.918 157.947C814.168 156.898 814.338 156.895 813.959 157.449C813.754 157.748 813.42 158.161 812.932 158.595C812.435 159.036 811.892 159.4 811.36 159.667C810.227 160.235 809.901 160 811.21 160V105C793.253 105 778.058 112.537 768.586 126.364C760.28 138.488 758.46 152.426 758.46 162.75H813.46ZM811.21 160C812.554 160 812.125 160.222 810.782 159.621C810.101 159.316 809.334 158.864 808.579 158.243C807.827 157.625 807.251 156.976 806.841 156.403C806.052 155.299 806.143 154.862 806.405 156.01C806.671 157.178 806.96 159.317 806.96 162.75H861.96C861.96 151.16 860.276 136.572 851.578 124.409C841.497 110.312 826.234 105 811.21 105V160ZM806.96 162.75C806.96 166.157 806.653 168.075 806.443 168.935C806.246 169.741 806.3 168.942 807.362 167.574C807.898 166.884 808.587 166.186 809.413 165.565C810.235 164.947 811.022 164.533 811.659 164.274C812.876 163.78 813.155 164 811.71 164V219C825.181 219 840.301 214.835 850.808 201.301C860.099 189.333 861.96 174.656 861.96 162.75H806.96ZM889.261 275L863.832 264.529L848.197 302.5H889.261V275ZM930.011 275V302.5H948.452L955.452 285.439L930.011 275ZM1001.51 100.75L1026.95 111.189L1042.52 73.25H1001.51V100.75ZM960.261 100.75V73.25H941.085L934.456 91.2431L960.261 100.75ZM932.261 176.75L906.087 185.188L930.527 261.002L958.065 186.257L932.261 176.75ZM907.761 100.75L933.934 92.3124L927.789 73.25H907.761V100.75ZM866.261 100.75V73.25H826.226L840.592 110.618L866.261 100.75ZM912.011 219.75L937.439 230.221L941.607 220.099L937.679 209.882L912.011 219.75ZM889.261 302.5H930.011V247.5H889.261V302.5ZM955.452 285.439L1026.95 111.189L976.069 90.3106L904.569 264.561L955.452 285.439ZM1001.51 73.25H960.261V128.25H1001.51V73.25ZM934.456 91.2431L906.456 167.243L958.065 186.257L986.065 110.257L934.456 91.2431ZM958.434 168.312L933.934 92.3124L881.587 109.188L906.087 185.188L958.434 168.312ZM907.761 73.25H866.261V128.25H907.761V73.25ZM840.592 110.618L886.342 229.618L937.679 209.882L891.929 90.8817L840.592 110.618ZM886.582 209.279L863.832 264.529L914.689 285.471L937.439 230.221L886.582 209.279ZM1088.16 130V157.5H1115.66V130H1088.16ZM1088.16 100.75H1115.66V73.25H1088.16V100.75ZM1056.66 100.75H1029.16V128.25H1056.66V100.75ZM1056.66 54.75H1084.16V0.189282L1040.3 32.6443L1056.66 54.75ZM1019.16 82.5L1002.8 60.3943L991.661 68.6393V82.5H1019.16ZM1019.16 100.75V128.25H1046.66V100.75H1019.16ZM999.411 100.75V73.25H971.911V100.75H999.411ZM999.411 130H971.911V157.5H999.411V130ZM1019.16 130H1046.66V102.5H1019.16V130ZM1087.91 222.75L1096.85 248.756L1115.24 242.434L1115.41 222.985L1087.91 222.75ZM1088.16 193.5L1115.66 193.735L1115.98 155.789L1079.82 167.295L1088.16 193.5ZM1056.66 130V102.5H1029.16V130H1056.66ZM1115.66 130V100.75H1060.66V130H1115.66ZM1088.16 73.25H1056.66V128.25H1088.16V73.25ZM1084.16 100.75V54.75H1029.16V100.75H1084.16ZM1040.3 32.6443L1002.8 60.3943L1035.52 104.606L1073.02 76.8556L1040.3 32.6443ZM991.661 82.5V100.75H1046.66V82.5H991.661ZM1019.16 73.25H999.411V128.25H1019.16V73.25ZM971.911 100.75V130H1026.91V100.75H971.911ZM999.411 157.5H1019.16V102.5H999.411V157.5ZM991.661 130V184.75H1046.66V130H991.661ZM991.661 184.75C991.661 207.024 999.332 226.12 1015.12 238.923C1029.89 250.897 1047.98 254.25 1063.16 254.25V199.25C1055.1 199.25 1051.18 197.353 1049.76 196.202C1049.19 195.742 1048.61 195.106 1048.06 193.815C1047.46 192.404 1046.66 189.622 1046.66 184.75H991.661ZM1063.16 254.25C1074.7 254.25 1085.75 252.573 1096.85 248.756L1078.97 196.744C1074.08 198.427 1069.12 199.25 1063.16 199.25V254.25ZM1115.41 222.985L1115.66 193.735L1060.66 193.265L1060.41 222.515L1115.41 222.985ZM1079.82 167.295C1076.32 168.409 1073.68 168.75 1072.16 168.75V223.75C1080.64 223.75 1089 222.091 1096.5 219.705L1079.82 167.295ZM1072.16 168.75C1071.21 168.75 1072.57 168.581 1075 169.733C1077.74 171.034 1080.28 173.287 1082.04 176.144C1083.6 178.687 1084 180.827 1084.1 181.553C1084.2 182.188 1084.16 182.548 1084.16 181.25H1029.16C1029.16 182.754 1028.6 194.235 1035.16 204.918C1043.48 218.468 1057.82 223.75 1072.16 223.75V168.75ZM1084.16 181.25V130H1029.16V181.25H1084.16ZM1056.66 157.5H1088.16V102.5H1056.66V157.5ZM1212.41 203.75L1233.04 221.933L1251.19 201.34L1230.63 183.153L1212.41 203.75ZM1186.41 180.75L1204.63 160.153L1183.29 141.277L1165.18 163.268L1186.41 180.75ZM1135.16 175.5V148H1103.1L1107.98 179.682L1135.16 175.5ZM1216.16 175.5V203H1241.16L1243.53 178.107L1216.16 175.5ZM1134.66 147.75L1107.63 142.682L1101.52 175.25H1134.66V147.75ZM1180.91 147.75V175.25H1209.63L1208.38 146.555L1180.91 147.75ZM1244.41 163.5C1244.41 139.904 1238.12 116.586 1222.93 98.6962C1207.21 80.1993 1184.48 70.5 1158.16 70.5V125.5C1170.33 125.5 1176.97 129.551 1181.01 134.304C1185.56 139.664 1189.41 149.096 1189.41 163.5H1244.41ZM1158.16 70.5C1128.09 70.5 1104.75 82.6518 1089.61 102.044C1075.24 120.445 1069.91 143.148 1069.91 163H1124.91C1124.91 152.102 1127.95 142.305 1132.96 135.894C1137.19 130.473 1144.22 125.5 1158.16 125.5V70.5ZM1069.91 163C1069.91 183.427 1075.41 206.217 1090.61 224.413C1106.5 243.424 1130.34 254.25 1160.16 254.25V199.25C1144.47 199.25 1136.94 194.076 1132.82 189.149C1128.02 183.408 1124.91 174.323 1124.91 163H1069.91ZM1160.16 254.25C1189.68 254.25 1214.74 242.696 1233.04 221.933L1191.77 185.567C1184.07 194.304 1174.13 199.25 1160.16 199.25V254.25ZM1230.63 183.153L1204.63 160.153L1168.18 201.347L1194.18 224.347L1230.63 183.153ZM1165.18 163.268C1164.56 164.02 1163.95 164.429 1163.31 164.707C1162.59 165.019 1161.6 165.25 1160.41 165.25V220.25C1176.54 220.25 1194.62 214.038 1207.63 198.232L1165.18 163.268ZM1160.41 165.25C1156.33 165.25 1156.81 164.312 1158.83 165.842C1159.83 166.598 1160.74 167.633 1161.41 168.816C1162.05 169.949 1162.27 170.871 1162.34 171.318L1107.98 179.682C1109.66 190.609 1115.09 201.727 1125.67 209.721C1135.88 217.438 1148.23 220.25 1160.41 220.25V165.25ZM1135.16 203H1216.16V148H1135.16V203ZM1243.53 178.107C1244.04 172.773 1244.41 168.406 1244.41 163.5H1189.41C1189.41 165.594 1189.27 167.727 1188.78 172.893L1243.53 178.107ZM1161.68 152.818C1161.68 152.82 1161.67 152.949 1161.53 153.227C1161.39 153.528 1161.04 154.152 1160.34 154.861C1159.58 155.625 1158.68 156.214 1157.83 156.554C1157.01 156.881 1156.81 156.75 1157.66 156.75V101.75C1143.05 101.75 1130.45 106.894 1121.28 116.139C1112.76 124.737 1109.07 134.967 1107.63 142.682L1161.68 152.818ZM1157.66 156.75C1159.01 156.75 1158.55 157.152 1157.12 156.069C1156.35 155.481 1155.39 154.501 1154.62 153.065C1153.82 151.593 1153.48 150.117 1153.43 148.945L1208.38 146.555C1207.01 114.963 1178.81 101.75 1157.66 101.75V156.75ZM1180.91 120.25H1134.66V175.25H1180.91V120.25ZM1199.85 171.945L1200.1 171.695L1161.21 132.805L1160.96 133.055L1199.85 171.945ZM1161.21 132.805L1160.96 133.055L1199.85 171.945L1200.1 171.695L1161.21 132.805ZM1294.86 141.25L1270.72 154.418L1283.95 178.677L1308.15 165.328L1294.86 141.25ZM1323.86 125.25L1337.15 149.328L1362.12 135.553L1347.45 111.101L1323.86 125.25ZM1251.61 177.75L1277.4 168.199L1267.22 140.697L1240.43 152.629L1251.61 177.75ZM1221.86 191L1210.68 165.879L1188.17 175.902L1195.67 199.368L1221.86 191ZM1274.36 254.25C1290.26 254.25 1308.83 250.033 1324.22 238.915C1340.65 227.046 1352.11 208.08 1352.11 183.25H1297.11C1297.11 186.842 1296.36 188.992 1295.67 190.307C1294.95 191.676 1293.82 193.027 1292.01 194.335C1288.02 197.217 1281.47 199.25 1274.36 199.25V254.25ZM1352.11 183.25C1352.11 164.888 1345.81 149.735 1334.56 138.535C1324.25 128.272 1311.7 123.295 1302.65 120.435C1297.99 118.96 1293.45 117.818 1289.97 116.942C1286.11 115.969 1283.86 115.393 1282.15 114.831C1280.11 114.159 1281.53 114.333 1283.79 116.126C1287.11 118.756 1291.61 124.524 1291.61 132.75H1236.61C1236.61 145.038 1243.01 153.979 1249.63 159.231C1255.2 163.645 1261.36 165.892 1264.98 167.083C1268.94 168.384 1273.31 169.463 1276.54 170.276C1280.15 171.186 1283.18 171.962 1286.08 172.877C1292.15 174.799 1294.73 176.493 1295.76 177.52C1295.85 177.609 1297.11 178.362 1297.11 183.25H1352.11ZM1291.61 132.75C1291.61 139.758 1288.1 146.29 1282.72 150.128C1280.43 151.767 1278.34 152.531 1276.99 152.884C1275.64 153.237 1274.78 153.25 1274.61 153.25V98.25C1267.63 98.25 1258.72 99.6853 1250.76 105.372C1241.88 111.71 1236.61 121.742 1236.61 132.75H1291.61ZM1274.61 153.25C1273.79 153.25 1272.49 153.05 1271.09 152.408C1269.77 151.805 1268.97 151.096 1268.67 150.787C1268.41 150.528 1268.5 150.555 1268.92 151.207C1269.11 151.514 1269.34 151.904 1269.64 152.438C1269.99 153.063 1270.23 153.508 1270.72 154.418L1319.01 128.082C1317.44 125.208 1305.35 98.25 1274.61 98.25V153.25ZM1308.15 165.328L1337.15 149.328L1310.58 101.172L1281.58 117.172L1308.15 165.328ZM1347.45 111.101C1333.09 87.1806 1308.22 70.5 1275.11 70.5V125.5C1287.51 125.5 1295.14 130.819 1300.28 139.399L1347.45 111.101ZM1275.11 70.5C1260.15 70.5 1242.54 74.0228 1227.81 84.2737C1211.89 95.3571 1201.11 113.257 1201.11 136.5H1256.11C1256.11 133.692 1256.69 132.324 1257.01 131.728C1257.35 131.088 1257.95 130.303 1259.23 129.414C1262.19 127.352 1267.83 125.5 1275.11 125.5V70.5ZM1201.11 136.5C1201.11 154.474 1207.56 169.096 1218.29 179.935C1228.1 189.836 1240.02 195.076 1248.6 198.24C1253.01 199.865 1257.37 201.225 1260.63 202.259C1264.26 203.409 1266.4 204.122 1267.94 204.756C1269.75 205.497 1268.47 205.254 1266.49 203.437C1263.7 200.874 1260.11 195.653 1260.11 188.5H1315.11C1315.11 177.097 1309.69 168.423 1303.67 162.901C1298.46 158.125 1292.58 155.417 1288.85 153.885C1284.86 152.245 1280.55 150.877 1277.26 149.833C1273.6 148.673 1270.59 147.728 1267.63 146.635C1261.46 144.362 1258.63 142.508 1257.37 141.236C1257.04 140.904 1256.11 140.276 1256.11 136.5H1201.11ZM1260.11 188.5C1260.11 182.599 1262.75 176.321 1267.99 172.271C1272.47 168.807 1275.9 169.25 1274.11 169.25V224.25C1282.83 224.25 1293.01 222.443 1301.62 215.792C1310.98 208.554 1315.11 198.151 1315.11 188.5H1260.11ZM1274.11 169.25C1273.34 169.25 1274.04 169.128 1275.47 169.79C1276.14 170.102 1276.8 170.51 1277.41 170.991C1278 171.464 1278.44 171.927 1278.74 172.293C1279.3 172.966 1279.34 173.262 1279.02 172.541C1278.87 172.2 1278.69 171.737 1278.42 171.011C1278.29 170.641 1278.15 170.269 1277.98 169.789C1277.82 169.35 1277.62 168.775 1277.4 168.199L1225.83 187.301C1226.28 188.514 1229.38 198.873 1236.3 207.269C1244.89 217.699 1257.77 224.25 1274.11 224.25V169.25ZM1240.43 152.629L1210.68 165.879L1233.05 216.121L1262.8 202.871L1240.43 152.629ZM1195.67 199.368C1204.94 228.406 1234.78 254.25 1274.36 254.25V199.25C1259.45 199.25 1250.28 189.594 1248.06 182.632L1195.67 199.368Z" fill="#444444"/>
<path d="M116.481 130V100.75H84.9814V54.75L47.4814 82.5V100.75H27.7314V130H47.4814V184.75C47.4814 216.25 68.2314 226.75 91.4815 226.75C100.231 226.75 108.231 225.5 116.231 222.75L116.481 193.5C110.981 195.25 105.481 196.25 100.481 196.25C84.9814 196.25 84.9814 186 84.9814 181.25V130H116.481ZM137.196 83.75H175.696V49.75H137.196V83.75ZM137.446 224H175.196V100.75H137.446V224ZM347.12 98C332.87 98 318.37 102.25 307.62 122.5C299.62 102.75 284.37 98 271.87 98C260.62 98 247.62 102 239.37 116.75V100.75H203.12L203.37 224H241.12V184.25C241.12 161 235.87 130.75 261.87 130.75C280.12 130.75 278.37 152.5 278.37 155.5V224H315.87V184.25C315.87 161 310.37 130.75 335.62 130.75C351.12 130.75 353.12 147 353.12 156.25V224H390.87V144.5C390.87 122.25 376.87 98 347.12 98ZM559.522 98C545.272 98 530.772 102.25 520.022 122.5C512.022 102.75 496.772 98 484.272 98C473.022 98 460.022 102 451.772 116.75V100.75H415.522L415.772 224H453.522V184.25C453.522 161 448.272 130.75 474.272 130.75C492.522 130.75 490.772 152.5 490.772 155.5V224H528.272V184.25C528.272 161 522.772 130.75 548.022 130.75C563.522 130.75 565.522 147 565.522 156.25V224H603.272V144.5C603.272 122.25 589.272 98 559.522 98ZM630.228 275H670.978L742.478 100.75H701.228L673.228 176.75L648.728 100.75H607.228L652.978 219.75L630.228 275ZM822.46 98C809.71 98 796.96 103 789.46 110.5V49.75H751.71V224H789.46V214.75C797.96 223.5 810.96 226.75 821.71 226.75C853.71 226.75 871.96 199.25 871.96 162.25C871.96 121 849.46 98 822.46 98ZM811.71 191.5C792.46 191.5 785.96 178.5 785.96 162.75C785.96 147.5 791.71 132.5 811.21 132.5C828.21 132.5 834.46 143.5 834.46 162.75C834.46 182.25 827.71 191.5 811.71 191.5ZM889.261 275H930.011L1001.51 100.75H960.261L932.261 176.75L907.761 100.75H866.261L912.011 219.75L889.261 275ZM1088.16 130V100.75H1056.66V54.75L1019.16 82.5V100.75H999.411V130H1019.16V184.75C1019.16 216.25 1039.91 226.75 1063.16 226.75C1071.91 226.75 1079.91 225.5 1087.91 222.75L1088.16 193.5C1082.66 195.25 1077.16 196.25 1072.16 196.25C1056.66 196.25 1056.66 186 1056.66 181.25V130H1088.16ZM1216.91 163.5C1216.91 125.5 1196.66 98 1158.16 98C1114.16 98 1097.41 132.25 1097.41 163C1097.41 194.75 1114.66 226.75 1160.16 226.75C1181.91 226.75 1199.41 218.5 1212.41 203.75L1186.41 180.75C1179.41 189.25 1169.66 192.75 1160.41 192.75C1144.16 192.75 1136.66 185.25 1135.16 175.5H1216.16C1216.66 170.25 1216.91 167 1216.91 163.5ZM1134.66 147.75C1136.16 139.75 1141.91 129.25 1157.66 129.25C1170.16 129.25 1180.41 136.25 1180.91 147.75H1134.66ZM1180.41 152.5L1180.66 152.25L1180.41 152.5ZM1274.36 226.75C1297.36 226.75 1324.61 214.25 1324.61 183.25C1324.61 136.75 1264.11 149 1264.11 132.75C1264.11 128.75 1267.61 125.75 1274.61 125.75C1286.86 125.75 1291.86 135.75 1294.86 141.25L1323.86 125.25C1314.11 109 1297.86 98 1275.11 98C1252.86 98 1228.61 108.75 1228.61 136.5C1228.61 180 1287.61 171.5 1287.61 188.5C1287.61 192.25 1284.61 196.75 1274.11 196.75C1257.36 196.75 1254.11 184.5 1251.61 177.75L1221.86 191C1227.61 209 1247.11 226.75 1274.36 226.75Z" fill="#FF90AD"/>
</svg>
