<?xml version="1.0" standalone="no"?>
<!DOCTYPE svg PUBLIC "-//W3C//DTD SVG 20010904//EN"
 "http://www.w3.org/TR/2001/REC-SVG-20010904/DTD/svg10.dtd">
<svg version="1.0" xmlns="http://www.w3.org/2000/svg"
 width="700.000000pt" height="700.000000pt" viewBox="0 0 700.000000 700.000000"
 preserveAspectRatio="xMidYMid meet">
<metadata>
Created by potrace 1.11, written by Peter Selinger 2001-2013
</metadata>
<g transform="translate(0.000000,700.000000) scale(0.100000,-0.100000)"
fill="#000000" stroke="none">
<path d="M1810 6123 c-553 -409 -1071 -792 -1152 -851 l-147 -107 -1 -47 0
-48 -235 0 -235 0 0 -1055 0 -1055 234 0 234 0 5 -417 c5 -438 11 -511 58
-695 158 -623 607 -1043 1254 -1173 305 -61 666 -58 983 10 111 23 1558 23
1659 -1 203 -48 458 -65 647 -45 892 97 1519 747 1686 1745 44 269 51 630 15
900 -104 786 -499 1389 -1100 1677 -246 118 -515 179 -786 179 l-79 0 0 580 0
580 -1015 0 -1015 0 -2 284 -3 284 -1005 -745z m890 277 l0 -220 1015 0 1015
0 0 -587 0 -588 218 0 c186 -1 232 -4 322 -24 329 -70 611 -222 840 -451 171
-171 298 -356 394 -576 146 -332 208 -654 207 -1079 -1 -449 -79 -811 -248
-1150 -184 -368 -456 -643 -794 -804 -341 -163 -729 -206 -1126 -126 l-122 25
-790 0 c-656 0 -800 -2 -853 -15 -190 -44 -561 -61 -763 -35 -359 45 -640 162
-877 364 -235 201 -389 471 -465 820 -26 120 -26 125 -30 624 l-4 502 -240 0
-239 0 0 935 0 935 240 0 240 0 0 78 1 77 342 252 c188 139 648 480 1022 757
374 278 683 505 688 505 4 1 7 -98 7 -219z"/>
<path d="M3240 3500 l0 -2100 455 0 455 0 0 105 c0 58 3 105 6 105 3 0 31 -23
62 -50 77 -68 249 -153 377 -185 513 -130 982 39 1265 455 53 78 140 260 175
365 138 417 138 959 -1 1374 -156 470 -481 776 -904 852 -41 7 -131 13 -200
12 -263 -2 -530 -91 -712 -238 l-68 -55 0 730 0 730 -455 0 -455 0 0 -2100z
m1585 85 c289 -61 422 -319 402 -780 -16 -358 -130 -544 -369 -600 -80 -19
-262 -19 -350 0 -209 44 -343 178 -410 410 -20 70 -23 101 -23 260 0 154 4
193 23 270 62 244 208 398 420 440 90 18 222 18 307 0z"/>
<path d="M1663 5142 l-453 -335 0 -219 0 -218 -235 0 -235 0 0 -355 0 -355
235 0 235 0 0 -679 c0 -397 4 -722 10 -782 36 -358 193 -604 473 -743 132 -66
252 -99 422 -116 206 -22 486 4 675 63 l75 23 6 104 c4 58 7 218 8 356 l1 250
-92 -23 c-347 -88 -587 -31 -650 155 -9 28 -13 204 -16 715 l-3 677 381 0 380
0 0 355 0 355 -380 0 -380 0 -2 554 -3 553 -452 -335z"/>
</g>
</svg>
